<?xml version="1.0" encoding="UTF-8" standalone="no"?>
<!-- Created with Inkscape (http://www.inkscape.org/) -->

<svg
   xmlns:dc="http://purl.org/dc/elements/1.1/"
   xmlns:cc="http://creativecommons.org/ns#"
   xmlns:rdf="http://www.w3.org/1999/02/22-rdf-syntax-ns#"
   xmlns:svg="http://www.w3.org/2000/svg"
   xmlns="http://www.w3.org/2000/svg"
   xmlns:xlink="http://www.w3.org/1999/xlink"
   xmlns:sodipodi="http://sodipodi.sourceforge.net/DTD/sodipodi-0.dtd"
   xmlns:inkscape="http://www.inkscape.org/namespaces/inkscape"
   width="338.66666mm"
   height="190.5mm"
   viewBox="0 0 338.66666 190.5"
   version="1.1"
   id="svg8"
   sodipodi:docname="watermark.svg"
   inkscape:export-filename="/home/sherlock/Gambar/komunitas/libreoffice/watermark.png"
   inkscape:export-xdpi="96"
   inkscape:export-ydpi="96"
   inkscape:version="0.92.4 (5da689c313, 2019-01-14)">
  <defs
     id="defs2">
    <linearGradient
       inkscape:collect="always"
       id="linearGradient944">
      <stop
         style="stop-color:#000000;stop-opacity:1"
         offset="0"
         id="stop940" />
      <stop
         style="stop-color:#000000;stop-opacity:0"
         offset="1"
         id="stop942" />
    </linearGradient>
    <linearGradient
       inkscape:collect="always"
       xlink:href="#linearGradient944"
       id="linearGradient946"
       x1="-26.969027"
       y1="182.4296"
       x2="-26.969027"
       y2="141.11484"
       gradientUnits="userSpaceOnUse"
       gradientTransform="matrix(1,0,0,1.4283309,0,-76.378027)" />
  </defs>
  <sodipodi:namedview
     id="base"
     pagecolor="#ffffff"
     bordercolor="#666666"
     borderopacity="1.0"
     inkscape:pageopacity="0.0"
     inkscape:pageshadow="2"
     inkscape:zoom="1.4"
     inkscape:cx="590.67533"
     inkscape:cy="70.633852"
     inkscape:document-units="mm"
     inkscape:current-layer="layer1"
     showgrid="false"
     inkscape:window-width="1366"
     inkscape:window-height="721"
     inkscape:window-x="0"
     inkscape:window-y="24"
     inkscape:window-maximized="1"
     inkscape:snap-page="true" />
  <metadata
     id="metadata5">
    <rdf:RDF>
      <cc:Work
         rdf:about="">
        <dc:format>image/svg+xml</dc:format>
        <dc:type
           rdf:resource="http://purl.org/dc/dcmitype/StillImage" />
      </cc:Work>
    </rdf:RDF>
  </metadata>
  <g
     inkscape:label="Layer 1"
     inkscape:groupmode="layer"
     id="layer1"
     transform="translate(194.27975,12.184524)">
    <text
       id="text936"
       y="170.20274"
       x="-136.29265"
       style="font-style:normal;font-variant:normal;font-weight:500;font-stretch:normal;font-size:3.45880222px;line-height:8.78589821px;font-family:'Inter UI';-inkscape-font-specification:'Inter UI Medium';font-variant-ligatures:normal;font-variant-position:normal;font-variant-caps:normal;font-variant-numeric:normal;font-variant-alternates:normal;font-feature-settings:normal;text-indent:0;text-align:center;text-decoration:none;text-decoration-line:none;text-decoration-style:solid;text-decoration-color:#000000;letter-spacing:normal;word-spacing:normal;text-transform:none;writing-mode:lr-tb;direction:ltr;text-orientation:mixed;dominant-baseline:auto;baseline-shift:baseline;text-anchor:middle;white-space:normal;shape-padding:0;opacity:1;vector-effect:none;fill:#ffffff;fill-opacity:1;fill-rule:nonzero;stroke:none;stroke-width:0.15319498;stroke-linecap:round;stroke-linejoin:round;stroke-miterlimit:4;stroke-dasharray:none;stroke-dashoffset:0;stroke-opacity:1;paint-order:fill markers stroke"
       xml:space="preserve"><tspan
         style="fill:#ffffff;stroke:none;stroke-width:0.15319498"
         y="175.64729"
         x="-136.29265"
         id="tspan934"
         sodipodi:role="line" /></text>
    <rect
       style="opacity:1;vector-effect:none;fill:url(#linearGradient946);fill-opacity:1;fill-rule:nonzero;stroke:none;stroke-width:0.14709836;stroke-linecap:round;stroke-linejoin:round;stroke-miterlimit:4;stroke-dasharray:none;stroke-dashoffset:0;stroke-opacity:1;paint-order:fill markers stroke"
       id="rect938"
       width="338.66666"
       height="65.9524"
       x="-194.27975"
       y="112.36308"
       rx="0"
       ry="0" />
    <g
       aria-label="Komunitas LibreOffice Indonesia"
       style="font-style:normal;font-variant:normal;font-weight:500;font-stretch:normal;font-size:11.33342266px;line-height:28.78866768px;font-family:'Inter UI';-inkscape-font-specification:'Inter UI Medium';font-variant-ligatures:normal;font-variant-position:normal;font-variant-caps:normal;font-variant-numeric:normal;font-variant-alternates:normal;font-feature-settings:normal;text-indent:0;text-align:center;text-decoration:none;text-decoration-line:none;text-decoration-style:solid;text-decoration-color:#000000;letter-spacing:normal;word-spacing:normal;text-transform:none;writing-mode:lr-tb;direction:ltr;text-orientation:mixed;dominant-baseline:auto;baseline-shift:baseline;text-anchor:middle;white-space:normal;shape-padding:0;opacity:1;vector-effect:none;fill:#ffffff;fill-opacity:1;fill-rule:nonzero;stroke:none;stroke-width:0.5019725;stroke-linecap:round;stroke-linejoin:round;stroke-miterlimit:4;stroke-dasharray:none;stroke-dashoffset:0;stroke-opacity:1;paint-order:fill markers stroke"
       id="text932">
      <path
         d="m -147.56833,160.50336 h 1.74268 v -2.34235 l 0.85725,-1.04641 2.25783,3.38876 h 2.08477 l -3.09496,-4.55189 3.05874,-3.6906 h -2.0888 l -2.96616,3.63426 h -0.10867 v -3.63426 h -1.74268 z"
         style="font-weight:bold;fill:#ffffff;stroke:none;stroke-width:0.5019725"
         id="path1193" />
      <path
         d="m -137.43626,160.6241 c 1.87549,0 3.04264,-1.28387 3.04264,-3.18753 0,-1.91573 -1.16715,-3.19557 -3.04264,-3.19557 -1.87549,0 -3.04264,1.27984 -3.04264,3.19557 0,1.90366 1.16715,3.18753 3.04264,3.18753 z m 0.008,-1.32814 c -0.8653,0 -1.30801,-0.79286 -1.30801,-1.87146 0,-1.07861 0.44271,-1.87549 1.30801,-1.87549 0.8492,0 1.29191,0.79688 1.29191,1.87549 0,1.0786 -0.44271,1.87146 -1.29191,1.87146 z"
         style="font-weight:bold;fill:#ffffff;stroke:none;stroke-width:0.5019725"
         id="path1195" />
      <path
         d="m -133.27879,160.50336 h 1.7145 v -3.71073 c 0,-0.68419 0.43466,-1.13898 1.00616,-1.13898 0.56345,0 0.94177,0.38637 0.94177,0.99409 v 3.85562 h 1.66218 v -3.77513 c 0,-0.63992 0.36624,-1.07458 0.99007,-1.07458 0.54735,0 0.95786,0.3421 0.95786,1.03031 v 3.8194 h 1.71048 v -4.15747 c 0,-1.34021 -0.79688,-2.10489 -1.94793,-2.10489 -0.90555,0 -1.60986,0.46283 -1.86342,1.17117 h -0.0644 c -0.19721,-0.71639 -0.82908,-1.17117 -1.67828,-1.17117 -0.8331,0 -1.46497,0.44271 -1.72255,1.17117 h -0.0725 v -1.09068 h -1.634 z"
         style="font-weight:bold;fill:#ffffff;stroke:none;stroke-width:0.5019725"
         id="path1197" />
      <path
         d="m -118.97719,157.87123 c 0.004,0.82908 -0.56345,1.26374 -1.17922,1.26374 -0.64797,0 -1.06654,-0.45478 -1.07056,-1.18324 v -3.63024 h -1.7145 v 3.93611 c 0.004,1.44485 0.8492,2.32625 2.09282,2.32625 0.92969,0 1.59778,-0.47893 1.87549,-1.20337 h 0.0644 v 1.12288 h 1.64608 v -6.18187 h -1.7145 z"
         style="font-weight:bold;fill:#ffffff;stroke:none;stroke-width:0.5019725"
         id="path1199" />
      <path
         d="m -114.18785,156.92947 c 0.004,-0.79689 0.47893,-1.26375 1.17117,-1.26375 0.68822,0 1.10275,0.45077 1.09873,1.2074 v 3.63024 h 1.7145 v -3.93611 c 0,-1.44083 -0.84517,-2.32625 -2.13306,-2.32625 -0.91762,0 -1.58169,0.45076 -1.85939,1.17117 h -0.0725 v -1.09068 h -1.63401 v 6.18187 h 1.71451 z"
         style="font-weight:bold;fill:#ffffff;stroke:none;stroke-width:0.5019725"
         id="path1201" />
      <path
         d="m -108.86324,160.50336 h 1.71451 v -6.18187 h -1.71451 z m 0.86128,-6.91436 c 0.49906,0 0.92969,-0.37831 0.92969,-0.86932 0,-0.48698 -0.43063,-0.8653 -0.92969,-0.8653 -0.49503,0 -0.92567,0.37832 -0.92567,0.8653 0,0.49101 0.43064,0.86932 0.92567,0.86932 z"
         style="font-weight:bold;fill:#ffffff;stroke:none;stroke-width:0.5019725"
         id="path1203" />
      <path
         d="m -102.49825,154.32149 h -1.16312 v -1.48107 h -1.7145 v 1.48107 h -0.84518 v 1.28789 h 0.84518 v 3.20765 c -0.008,1.20739 0.817,1.80707 2.06062,1.75877 0.44271,-0.0201 0.75663,-0.10866 0.92969,-0.16099 l -0.26965,-1.27984 c -0.0845,0.0201 -0.26563,0.0563 -0.42661,0.0563 -0.3421,0 -0.59163,-0.12879 -0.57955,-0.6037 v -2.97824 h 1.16312 z"
         style="font-weight:bold;fill:#ffffff;stroke:none;stroke-width:0.5019725"
         id="path1205" />
      <path
         d="m -99.596475,160.62007 c 0.913596,0 1.50522,-0.39844 1.807069,-0.97396 h 0.0483 v 0.85725 h 1.62596 v -4.16954 c 0,-1.47303 -1.259717,-2.09282 -2.595902,-2.09282 -1.521318,0 -2.483208,0.70834 -2.720668,1.83524 l 1.585716,0.12879 c 0.116715,-0.41052 0.482959,-0.71237 1.098731,-0.71237 0.591624,0 0.913596,0.28978 0.91762,0.80896 0.004,0.40649 -0.422588,0.46686 -1.49717,0.5715 -1.223497,0.11269 -2.322227,0.5232 -2.322227,1.90366 0,1.2235 0.87335,1.84329 2.052575,1.84329 z m 0.491007,-1.18325 c -0.527229,0 -0.905542,-0.2455 -0.905542,-0.71638 0,-0.48296 0.398436,-0.72042 1.002134,-0.80493 0.374293,-0.0523 0.98604,-0.14087 1.191297,-0.27771 v 0.65602 c 0,0.64797 -0.535278,1.143 -1.287889,1.143 z"
         style="font-weight:bold;fill:#ffffff;stroke:none;stroke-width:0.5019725"
         id="path1207" />
      <path
         d="m -89.641495,156.08429 c -0.152936,-1.13898 -1.070557,-1.84329 -2.632123,-1.84329 -1.581688,0 -2.624073,0.73248 -2.620049,1.92378 -0.004,0.92567 0.57955,1.52534 1.786946,1.76682 l 1.070558,0.21331 c 0.539303,0.10867 0.784807,0.30587 0.792857,0.61577 -0.008,0.36625 -0.40649,0.62785 -1.006164,0.62785 -0.611747,0 -1.018237,-0.2616 -1.122878,-0.76469 l -1.686329,0.0885 c 0.160986,1.18324 1.167149,1.91171 2.805183,1.91171 1.601812,0 2.748838,-0.81701 2.752862,-2.03648 -0.004,-0.89347 -0.587599,-1.42875 -1.786946,-1.67425 l -1.118853,-0.22538 c -0.575526,-0.12477 -0.788832,-0.32198 -0.784807,-0.6198 -0.004,-0.37027 0.414539,-0.61175 0.945793,-0.61175 0.595649,0 0.949818,0.326 1.034336,0.72444 z"
         style="font-weight:bold;fill:#ffffff;stroke:none;stroke-width:0.5019725"
         id="path1209" />
      <path
         d="m -85.743618,160.50336 h 5.27632 v -1.4368 h -3.533645 v -6.80569 h -1.742675 z"
         style="font-weight:bold;fill:#ffffff;stroke:none;stroke-width:0.5019725"
         id="path1211" />
      <path
         d="m -79.334363,160.50336 h 1.714502 v -6.18187 h -1.714502 z m 0.861276,-6.91436 c 0.499056,0 0.929694,-0.37831 0.929694,-0.86932 0,-0.48698 -0.430638,-0.8653 -0.929694,-0.8653 -0.495033,0 -0.925671,0.37832 -0.925671,0.8653 0,0.49101 0.430638,0.86932 0.925671,0.86932 z"
         style="font-weight:bold;fill:#ffffff;stroke:none;stroke-width:0.5019725"
         id="path1213" />
      <path
         d="m -76.257512,160.50336 h 1.690354 v -0.99007 h 0.07647 c 0.237455,0.51516 0.756635,1.09068 1.754749,1.09068 1.408629,0 2.507359,-1.11483 2.507359,-3.1835 0,-2.12501 -1.147026,-3.17947 -2.503334,-3.17947 -1.034336,0 -1.529368,0.61577 -1.758774,1.11885 h -0.05232 v -3.09898 h -1.714502 z m 1.67828,-3.09094 c 0,-1.10275 0.46686,-1.80707 1.299963,-1.80707 0.849202,0 1.299963,0.73652 1.299963,1.80707 0,1.07861 -0.458811,1.8272 -1.299963,1.8272 -0.825054,0 -1.299963,-0.72444 -1.299963,-1.8272 z"
         style="font-weight:bold;fill:#ffffff;stroke:none;stroke-width:0.5019725"
         id="path1215" />
      <path
         d="m -69.085584,160.50336 h 1.714502 v -3.49743 c 0.004,-0.75663 0.551378,-1.27581 1.243618,-1.27581 0.23343,0 0.422589,0.0644 0.583575,0.14489 l 0.515155,-1.41668 c -0.22538,-0.13684 -0.515155,-0.22538 -0.845177,-0.22538 -0.696265,0 -1.259716,0.40246 -1.485097,1.16715 h -0.06439 v -1.07861 h -1.662182 z"
         style="font-weight:bold;fill:#ffffff;stroke:none;stroke-width:0.5019725"
         id="path1217" />
      <path
         d="m -61.70839,160.6241 c 1.529368,0 2.559679,-0.74456 2.801158,-1.89159 l -1.585713,-0.10464 c -0.17306,0.47088 -0.615772,0.71639 -1.187273,0.71639 -0.857251,0 -1.400579,-0.56748 -1.400579,-1.48912 v -0.004 h 4.209787 v -0.47088 c 0,-2.10087 -1.27179,-3.13923 -2.905799,-3.13923 -1.819144,0 -2.998367,1.29191 -2.998367,3.1996 0,1.96 1.163125,3.1835 3.066786,3.1835 z m -1.372407,-3.8355 c 0.03622,-0.70431 0.571501,-1.26776 1.33216,-1.26776 0.744561,0 1.259716,0.53125 1.263741,1.26776 z"
         style="font-weight:bold;fill:#ffffff;stroke:none;stroke-width:0.5019725"
         id="path1219" />
      <path
         d="m -50.145562,156.38211 c 0,-2.69652 -1.674256,-4.23393 -3.859643,-4.23393 -2.19746,0 -3.859642,1.53741 -3.859642,4.23393 0,2.68445 1.662182,4.23394 3.859642,4.23394 2.185387,0 3.859643,-1.53742 3.859643,-4.23394 z m -1.766823,0 c 0,1.7467 -0.829079,2.6925 -2.09282,2.6925 -1.267765,0 -2.092819,-0.9458 -2.092819,-2.6925 0,-1.7467 0.825054,-2.69249 2.092819,-2.69249 1.263741,0 2.09282,0.94579 2.09282,2.69249 z"
         style="font-weight:bold;fill:#ffffff;stroke:none;stroke-width:0.5019725"
         id="path1221" />
      <path
         d="m -45.517215,154.32149 h -1.227519 v -0.41454 c 0,-0.41856 0.169035,-0.66407 0.672117,-0.66407 0.205257,0 0.414539,0.0443 0.551377,0.0885 l 0.301849,-1.28789 c -0.213307,-0.0644 -0.684191,-0.16904 -1.21142,-0.16904 -1.163125,0 -2.028426,0.65602 -2.028426,2.00025 v 0.44674 h -0.873349 v 1.28789 h 0.873349 v 4.89398 h 1.714503 v -4.89398 h 1.227519 z"
         style="font-weight:bold;fill:#ffffff;stroke:none;stroke-width:0.5019725"
         id="path1223" />
      <path
         d="m -41.090091,154.32149 h -1.227519 v -0.41454 c 0,-0.41856 0.169035,-0.66407 0.672117,-0.66407 0.205257,0 0.414539,0.0443 0.551377,0.0885 l 0.301849,-1.28789 c -0.213307,-0.0644 -0.684191,-0.16904 -1.21142,-0.16904 -1.163125,0 -2.028426,0.65602 -2.028426,2.00025 v 0.44674 h -0.873349 v 1.28789 h 0.873349 v 4.89398 h 1.714503 v -4.89398 h 1.227519 z"
         style="font-weight:bold;fill:#ffffff;stroke:none;stroke-width:0.5019725"
         id="path1225" />
      <path
         d="m -40.043683,160.50336 h 1.714502 v -6.18187 h -1.714502 z m 0.861275,-6.91436 c 0.499057,0 0.929695,-0.37831 0.929695,-0.86932 0,-0.48698 -0.430638,-0.8653 -0.929695,-0.8653 -0.495032,0 -0.92567,0.37832 -0.92567,0.8653 0,0.49101 0.430638,0.86932 0.92567,0.86932 z"
         style="font-weight:bold;fill:#ffffff;stroke:none;stroke-width:0.5019725"
         id="path1227" />
      <path
         d="m -34.173731,160.6241 c 1.646083,0 2.680419,-0.96592 2.760912,-2.38662 h -1.61791 c -0.100617,0.66004 -0.535279,1.03031 -1.122879,1.03031 -0.800906,0 -1.320086,-0.67212 -1.320086,-1.85537 0,-1.16715 0.523205,-1.83524 1.320086,-1.83524 0.627846,0 1.030312,0.41454 1.122879,1.03031 h 1.61791 c -0.07244,-1.42875 -1.155075,-2.36649 -2.768961,-2.36649 -1.875488,0 -3.034589,1.29996 -3.034589,3.19557 0,1.87951 1.138977,3.18753 3.042638,3.18753 z"
         style="font-weight:bold;fill:#ffffff;stroke:none;stroke-width:0.5019725"
         id="path1229" />
      <path
         d="m -27.486772,160.6241 c 1.529368,0 2.55968,-0.74456 2.801159,-1.89159 l -1.585714,-0.10464 c -0.17306,0.47088 -0.615771,0.71639 -1.187272,0.71639 -0.857251,0 -1.400579,-0.56748 -1.400579,-1.48912 v -0.004 h 4.209787 v -0.47088 c 0,-2.10087 -1.271791,-3.13923 -2.9058,-3.13923 -1.819143,0 -2.998366,1.29191 -2.998366,3.1996 0,1.96 1.163124,3.1835 3.066785,3.1835 z m -1.372406,-3.8355 c 0.03622,-0.70431 0.5715,-1.26776 1.33216,-1.26776 0.744561,0 1.259716,0.53125 1.263741,1.26776 z"
         style="font-weight:bold;fill:#ffffff;stroke:none;stroke-width:0.5019725"
         id="path1231" />
      <path
         d="m -19.121526,152.26087 h -1.742675 v 8.24249 h 1.742675 z"
         style="font-weight:bold;fill:#ffffff;stroke:none;stroke-width:0.5019725"
         id="path1233" />
      <path
         d="m -15.994373,156.92947 c 0.004,-0.79689 0.478934,-1.26375 1.171174,-1.26375 0.688216,0 1.102755,0.45077 1.09873,1.2074 v 3.63024 h 1.714503 v -3.93611 c 0,-1.44083 -0.845177,-2.32625 -2.133066,-2.32625 -0.917621,0 -1.581689,0.45076 -1.85939,1.17117 h -0.07244 v -1.09068 h -1.634009 v 6.18187 h 1.714502 z"
         style="font-weight:bold;fill:#ffffff;stroke:none;stroke-width:0.5019725"
         id="path1235" />
      <path
         d="m -4.8702265,160.50336 v -8.24249 h -1.7145022 v 3.09898 h -0.05232 c -0.2294052,-0.50308 -0.7244375,-1.11885 -1.7587733,-1.11885 -1.356308,0 -2.5033345,1.05446 -2.5033345,3.17947 0,2.06867 1.0987306,3.1835 2.5073592,3.1835 0.9981139,0 1.5172941,-0.57552 1.7547486,-1.09068 h 0.076468 v 0.99007 z m -1.6782803,-3.09094 c 0,1.10276 -0.474909,1.8272 -1.2999629,1.8272 -0.8411525,0 -1.2999629,-0.74859 -1.2999629,-1.8272 0,-1.07055 0.4507611,-1.80707 1.2999629,-1.80707 0.8331032,0 1.2999629,0.70432 1.2999629,1.80707 z"
         style="font-weight:bold;fill:#ffffff;stroke:none;stroke-width:0.5019725"
         id="path1237" />
      <path
         d="m -0.70472149,160.6241 c 1.87548829,0 3.04263759,-1.28387 3.04263759,-3.18753 0,-1.91573 -1.1671493,-3.19557 -3.04263759,-3.19557 -1.87548831,0 -3.04263761,1.27984 -3.04263761,3.19557 0,1.90366 1.1671493,3.18753 3.04263761,3.18753 z m 0.008049,-1.32814 c -0.86530042,0 -1.30801222,-0.79286 -1.30801222,-1.87146 0,-1.07861 0.4427118,-1.87549 1.30801222,-1.87549 0.84920177,0 1.29191359,0.79688 1.29191359,1.87549 0,1.0786 -0.44271182,1.87146 -1.29191359,1.87146 z"
         style="font-weight:bold;fill:#ffffff;stroke:none;stroke-width:0.5019725"
         id="path1239" />
      <path
         d="m 5.1672483,156.92947 c 0.00402,-0.79689 0.4789337,-1.26375 1.171174,-1.26375 0.6882157,0 1.1027549,0.45077 1.0987303,1.2074 v 3.63024 h 1.7145021 v -3.93611 c 0,-1.44083 -0.8451771,-2.32625 -2.133066,-2.32625 -0.9176209,0 -1.5816886,0.45076 -1.8593897,1.17117 h -0.072444 v -1.09068 H 3.4527462 v 6.18187 h 1.7145021 z"
         style="font-weight:bold;fill:#ffffff;stroke:none;stroke-width:0.5019725"
         id="path1241" />
      <path
         d="m 13.309127,160.6241 c 1.529368,0 2.559679,-0.74456 2.801158,-1.89159 l -1.585713,-0.10464 c -0.17306,0.47088 -0.615772,0.71639 -1.187273,0.71639 -0.857251,0 -1.400579,-0.56748 -1.400579,-1.48912 v -0.004 h 4.209787 v -0.47088 c 0,-2.10087 -1.27179,-3.13923 -2.905799,-3.13923 -1.819143,0 -2.998367,1.29191 -2.998367,3.1996 0,1.96 1.163125,3.1835 3.066786,3.1835 z m -1.372407,-3.8355 c 0.03622,-0.70431 0.571501,-1.26776 1.33216,-1.26776 0.744561,0 1.259717,0.53125 1.263741,1.26776 z"
         style="font-weight:bold;fill:#ffffff;stroke:none;stroke-width:0.5019725"
         id="path1243" />
      <path
         d="m 22.408859,156.08429 c -0.152936,-1.13898 -1.070557,-1.84329 -2.632123,-1.84329 -1.581688,0 -2.624073,0.73248 -2.620049,1.92378 -0.004,0.92567 0.57955,1.52534 1.786946,1.76682 l 1.070558,0.21331 c 0.539303,0.10867 0.784807,0.30587 0.792857,0.61577 -0.0081,0.36625 -0.40649,0.62785 -1.006164,0.62785 -0.611747,0 -1.018237,-0.2616 -1.122878,-0.76469 l -1.686329,0.0885 c 0.160986,1.18324 1.167149,1.91171 2.805183,1.91171 1.601812,0 2.748838,-0.81701 2.752862,-2.03648 -0.004,-0.89347 -0.587599,-1.42875 -1.786946,-1.67425 l -1.118853,-0.22538 c -0.575526,-0.12477 -0.788832,-0.32198 -0.784807,-0.6198 -0.004,-0.37027 0.414539,-0.61175 0.945793,-0.61175 0.595649,0 0.949818,0.326 1.034336,0.72444 z"
         style="font-weight:bold;fill:#ffffff;stroke:none;stroke-width:0.5019725"
         id="path1245" />
      <path
         d="m 23.640414,160.50336 h 1.714502 v -6.18187 H 23.640414 Z M 24.50169,153.589 c 0.499057,0 0.929695,-0.37831 0.929695,-0.86932 0,-0.48698 -0.430638,-0.8653 -0.929695,-0.8653 -0.495033,0 -0.92567,0.37832 -0.92567,0.8653 0,0.49101 0.430637,0.86932 0.92567,0.86932 z"
         style="font-weight:bold;fill:#ffffff;stroke:none;stroke-width:0.5019725"
         id="path1247" />
      <path
         d="m 28.480055,160.62007 c 0.913596,0 1.50522,-0.39844 1.807069,-0.97396 h 0.0483 v 0.85725 h 1.62596 v -4.16954 c 0,-1.47303 -1.259716,-2.09282 -2.595901,-2.09282 -1.521319,0 -2.483211,0.70834 -2.720665,1.83524 l 1.585713,0.12879 c 0.116715,-0.41052 0.482958,-0.71237 1.09873,-0.71237 0.591624,0 0.913596,0.28978 0.917621,0.80896 0.004,0.40649 -0.422589,0.46686 -1.497171,0.5715 -1.223494,0.11269 -2.322225,0.5232 -2.322225,1.90366 0,1.2235 0.87335,1.84329 2.052573,1.84329 z m 0.491008,-1.18325 c -0.52723,0 -0.905547,-0.2455 -0.905547,-0.71638 0,-0.48296 0.398441,-0.72042 1.002139,-0.80493 0.374292,-0.0523 0.98604,-0.14087 1.191297,-0.27771 v 0.65602 c 0,0.64797 -0.535279,1.143 -1.287889,1.143 z"
         style="font-weight:bold;fill:#ffffff;stroke:none;stroke-width:0.5019725"
         id="path1249" />
    </g>
    <path
       sodipodi:nodetypes="ccccc"
       inkscape:connector-curvature="0"
       id="path963"
       d="m -194.27975,152.56315 34.48002,-4.75806 8.29658,30.51039 h -42.7766 z"
       style="opacity:1;vector-effect:none;fill:#1b4c14;fill-opacity:1;fill-rule:nonzero;stroke:none;stroke-width:0.31790096;stroke-linecap:round;stroke-linejoin:round;stroke-miterlimit:4;stroke-dasharray:none;stroke-dashoffset:0;stroke-opacity:1;paint-order:fill markers stroke" />
    <path
       style="opacity:1;vector-effect:none;fill:#3da92d;fill-opacity:1;fill-rule:nonzero;stroke:none;stroke-width:0.31790096;stroke-linecap:round;stroke-linejoin:round;stroke-miterlimit:4;stroke-dasharray:none;stroke-dashoffset:0;stroke-opacity:1;paint-order:fill markers stroke"
       d="m -194.27975,142.02745 h 25.47371 l 17.30289,36.28803 h -42.7766 z"
       id="rect960"
       inkscape:connector-curvature="0"
       sodipodi:nodetypes="ccccc" />
    <path
       inkscape:export-ydpi="299.96417"
       inkscape:export-xdpi="299.96417"
       inkscape:connector-curvature="0"
       id="path965"
       d="m -176.45645,152.88793 c -3.48445,0.0495 -6.74487,1.96117 -8.46128,5.10427 a 0.22254228,0.22264165 0 1 0 0.39051,0.2136 c 1.9338,-3.54116 5.91563,-5.44386 9.8841,-4.72266 3.96846,0.72118 7.02712,3.90318 7.59255,7.89852 0.56546,3.99535 -1.48996,7.90157 -5.10229,9.6966 -3.48749,1.73298 -7.66133,1.11384 -10.50196,-1.50853 0.24314,-0.23599 0.39506,-0.56565 0.39506,-0.93039 0,-0.71514 -0.58179,-1.29711 -1.29662,-1.29711 -0.7148,0 -1.29684,0.58197 -1.29684,1.29711 0,0.71513 0.58204,1.2975 1.29685,1.2975 0.18631,0 0.36316,-0.0403 0.52345,-0.11152 2.9758,2.80609 7.39468,3.48164 11.07789,1.65142 3.78253,-1.87958 5.93701,-5.97416 5.34491,-10.15772 -0.59208,-4.18358 -3.7982,-7.51868 -7.95362,-8.27381 -0.51943,-0.0943 -1.03906,-0.14589 -1.55482,-0.1563 -0.11292,-0.003 -0.2255,-0.003 -0.33789,-8.7e-4 z m -12.62741,6.54207 v 0.46149 h 0.62611 V 159.43 Z m 1.26555,0 v 2.75728 c 0,0.12335 -0.003,0.23329 -0.006,0.32987 -0.003,0.0951 -0.006,0.16873 -0.0114,0.22074 h 0.60827 c 0.003,-0.0114 0.006,-0.0328 0.009,-0.0624 0.005,-0.0298 0.009,-0.0632 0.0114,-0.10033 0.003,-0.0385 0.005,-0.0779 0.006,-0.118 0.003,-0.0401 0.005,-0.0759 0.005,-0.1072 l 0.005,1.2e-4 c 0.0385,0.0802 0.0848,0.14786 0.13832,0.20288 0.0535,0.0551 0.11203,0.0996 0.17597,0.13358 0.064,0.0341 0.13151,0.0586 0.20277,0.0735 0.0713,0.0149 0.14255,0.0224 0.21388,0.0224 0.15896,0 0.29625,-0.0313 0.41212,-0.0936 0.1175,-0.0624 0.2139,-0.14935 0.28966,-0.26082 0.0757,-0.11292 0.1315,-0.24599 0.16705,-0.39904 0.0371,-0.15449 0.0558,-0.32322 0.0558,-0.50598 0,-0.17981 -0.0172,-0.34551 -0.0512,-0.49709 -0.0341,-0.15151 -0.0876,-0.28223 -0.16027,-0.39218 -0.0713,-0.11152 -0.16262,-0.1977 -0.27403,-0.25864 -0.11152,-0.0624 -0.24431,-0.0936 -0.39879,-0.0936 -0.17378,0 -0.32686,0.0357 -0.45904,0.1072 -0.13221,0.0713 -0.23616,0.19019 -0.31191,0.35663 l -0.009,4e-5 c 0.001,-0.04 0.003,-0.0824 0.005,-0.12718 10e-4,-0.0385 0.003,-0.0801 0.003,-0.12487 0.001,-0.046 0.003,-0.0928 0.003,-0.14042 v -0.92291 z m 13.08712,0 v 0.3834 h 0.40111 V 159.43 Z m -1.76458,0.005 c -0.12042,0 -0.21831,0.0165 -0.29404,0.0491 -0.0757,0.0312 -0.13596,0.075 -0.18051,0.1315 -0.0431,0.0549 -0.0729,0.12042 -0.0891,0.19616 -0.0165,0.0743 -0.0244,0.15533 -0.0244,0.24299 v 0.27193 h -0.33865 v 0.29197 h 0.33865 v 2.11979 l 0.401,1e-5 v -2.1198 l 0.47005,1e-5 h 0.31423 v 2.11978 h 0.40099 v -2.11978 h 0.47017 v -0.29198 h -0.47017 v -0.2162 c 0,-0.058 0.003,-0.1091 0.0114,-0.15383 0.009,-0.0445 0.0238,-0.0818 0.0445,-0.11151 0.0223,-0.0312 0.052,-0.0552 0.0891,-0.0713 0.0385,-0.0165 0.0876,-0.0244 0.14702,-0.0244 0.0267,-1e-5 0.0565,0.001 0.0893,0.006 0.0341,0.003 0.064,0.006 0.0891,0.0114 v -0.30532 c -0.0385,-0.009 -0.0839,-0.0149 -0.13596,-0.02 -0.0505,-0.005 -0.0996,-0.006 -0.14702,-0.006 -0.12042,0 -0.21846,0.0165 -0.29418,0.0491 -0.0757,0.0313 -0.13582,0.075 -0.18039,0.13149 -0.0431,0.0551 -0.0729,0.12042 -0.0893,0.19617 -0.0165,0.0744 -0.0244,0.15532 -0.0244,0.24298 v 0.27193 h -0.31423 -0.47004 v -0.2162 c -1e-5,-0.058 0.003,-0.1091 0.0114,-0.15383 0.009,-0.0445 0.0238,-0.0818 0.0445,-0.11152 0.0223,-0.0312 0.052,-0.0551 0.0891,-0.0713 0.0387,-0.0165 0.0876,-0.0244 0.14705,-0.0244 0.0267,2e-5 0.0565,0.003 0.0891,0.006 0.0341,0.003 0.064,0.006 0.0891,0.0114 v -0.3053 c -0.0387,-0.009 -0.0839,-0.0149 -0.13595,-0.02 -0.0505,-0.005 -0.0996,-0.006 -0.14703,-0.006 z m -2.76271,0.11597 c -0.25102,0 -0.47382,0.0379 -0.66841,0.11355 -0.19309,0.0744 -0.35569,0.1814 -0.48788,0.32107 -0.13219,0.13831 -0.23246,0.30602 -0.30078,0.50367 -0.0683,0.19764 -0.10237,0.41908 -0.10237,0.66427 0,0.23629 0.0327,0.45402 0.098,0.65315 0.0654,0.19912 0.1626,0.37148 0.29186,0.5171 0.12913,0.14406 0.29111,0.25708 0.48568,0.33879 0.19459,0.0801 0.42108,0.12042 0.67952,0.12042 0.24508,0 0.46421,-0.0388 0.65729,-0.1161 0.19309,-0.0773 0.35642,-0.1872 0.4901,-0.32985 0.13359,-0.14274 0.23548,-0.31432 0.30529,-0.51492 0.0713,-0.20061 0.10707,-0.42347 0.10707,-0.66866 0,-0.24223 -0.0343,-0.46212 -0.10249,-0.65975 -0.0683,-0.19762 -0.16858,-0.36631 -0.30076,-0.50598 -0.13067,-0.13977 -0.29331,-0.24748 -0.48792,-0.32327 -0.19306,-0.0759 -0.41446,-0.11356 -0.66399,-0.11356 z m -12.62819,0.0468 v 3.14067 h 2.34167 v -0.50815 h -1.68438 v -2.63252 z m 12.62819,0.3009 c 0.1827,0 0.34388,0.0298 0.4835,0.0893 0.13958,0.0595 0.2562,0.14422 0.34978,0.25412 0.0951,0.10999 0.16635,0.24217 0.21388,0.39671 0.0491,0.15449 0.0735,0.32621 0.0735,0.51491 0,0.18576 -0.0224,0.35742 -0.0669,0.51491 -0.0431,0.15748 -0.11063,0.29342 -0.20275,0.40784 -0.0907,0.11292 -0.20719,0.20146 -0.3498,0.26536 -0.14107,0.064 -0.30966,0.0959 -0.50571,0.0959 -0.18271,0 -0.3446,-0.0313 -0.48569,-0.0937 -0.1396,-0.064 -0.25693,-0.15233 -0.35199,-0.2652 -0.0936,-0.11445 -0.16492,-0.24974 -0.214,-0.40578 -0.0476,-0.15747 -0.0712,-0.33058 -0.0712,-0.51931 0,-0.18872 0.023,-0.36038 0.0691,-0.51493 0.0476,-0.15447 0.118,-0.28674 0.21168,-0.39671 0.0951,-0.11 0.2132,-0.19466 0.35431,-0.25409 0.14108,-0.0595 0.30513,-0.0893 0.49227,-0.0893 z m -4.57629,0.38122 c -0.0876,1e-5 -0.16111,0.0139 -0.22047,0.0401 -0.0595,0.0252 -0.11063,0.0624 -0.15366,0.11152 -0.0416,0.0476 -0.0779,0.10631 -0.10923,0.17612 -0.0312,0.0684 -0.0623,0.14637 -0.0936,0.23405 l -0.009,5e-5 c 0,-0.0311 -0.001,-0.072 -0.005,-0.12245 -0.001,-0.052 -0.003,-0.10402 -0.006,-0.15614 -0.003,-0.052 -0.006,-0.0996 -0.009,-0.14256 -0.003,-0.0445 -0.006,-0.0759 -0.009,-0.0936 h -0.59713 c 0.003,0.0193 0.005,0.0505 0.006,0.0936 0.001,0.0416 0.003,0.0891 0.005,0.14256 0.003,0.052 0.005,0.10719 0.005,0.16492 10e-4,0.058 0.003,0.11292 0.003,0.1649 v 1.84569 h 0.62614 v -1.18359 c 0,-0.24816 0.0431,-0.43542 0.12914,-0.56173 0.0876,-0.1264 0.20947,-0.18944 0.36542,-0.18944 0.0565,1e-5 0.10466,0.003 0.14489,0.0114 0.0416,0.006 0.0824,0.0139 0.12246,0.0223 v -0.52385 c -0.0192,-0.009 -0.0476,-0.0165 -0.0847,-0.0224 -0.0356,-0.009 -0.0721,-0.0114 -0.10923,-0.0114 z m 1.57526,0.003 c -0.1515,0 -0.29563,0.0216 -0.43228,0.0646 -0.13665,0.0431 -0.25764,0.11368 -0.36311,0.21181 -0.10401,0.0965 -0.18719,0.22356 -0.24956,0.38107 -0.0608,0.15747 -0.0912,0.35146 -0.0912,0.58179 0,0.21248 0.0259,0.39831 0.0779,0.55733 0.052,0.15746 0.12704,0.289 0.225,0.39451 0.098,0.10402 0.2162,0.18192 0.35431,0.23391 0.1396,0.0505 0.29626,0.0759 0.47005,0.0759 0.17081,0 0.31565,-0.0209 0.43449,-0.0624 0.12042,-0.0431 0.22056,-0.0966 0.30076,-0.16045 0.0802,-0.0655 0.14406,-0.13678 0.19167,-0.21402 0.049,-0.0773 0.0867,-0.15001 0.11355,-0.21841 l -0.59043,-0.0513 c -0.0299,0.098 -0.0795,0.171 -0.14919,0.21853 -0.0699,0.046 -0.15978,0.0691 -0.26961,0.0691 -0.0907,1e-5 -0.16785,-0.0179 -0.23174,-0.0535 -0.064,-0.0371 -0.11597,-0.0868 -0.15596,-0.14935 -0.0401,-0.064 -0.0691,-0.13887 -0.0868,-0.22512 -0.0179,-0.0877 -0.0267,-0.18203 -0.0267,-0.28308 h 1.54618 v -0.0179 c 0,-0.20061 -0.02,-0.38334 -0.06,-0.54827 -0.0401,-0.16643 -0.10326,-0.30915 -0.18944,-0.42803 -0.0861,-0.1189 -0.19679,-0.21094 -0.33193,-0.27632 -0.1336,-0.0669 -0.29559,-0.10033 -0.4857,-0.10033 z m 9.46667,0 c -0.0861,0 -0.17149,0.009 -0.25616,0.0268 -0.0847,0.0165 -0.1656,0.0439 -0.24284,0.0824 -0.0757,0.0371 -0.14637,0.0876 -0.21168,0.1515 -0.0655,0.0624 -0.12259,0.14041 -0.17159,0.23405 -0.0476,0.0921 -0.0847,0.20065 -0.11127,0.32549 -0.0267,0.12335 -0.0402,0.2659 -0.0402,0.42787 0,0.17833 0.0184,0.34402 0.0557,0.49707 0.0371,0.15151 0.0968,0.2838 0.17832,0.39674 0.0832,0.11152 0.19082,0.19911 0.32301,0.26301 0.13206,0.064 0.29265,0.096 0.48129,0.096 0.14406,-2e-5 0.27103,-0.0208 0.38095,-0.0624 0.10999,-0.0431 0.2028,-0.0996 0.27855,-0.16939 0.0772,-0.0699 0.13804,-0.15086 0.18259,-0.24298 0.0445,-0.0921 0.0735,-0.18803 0.0868,-0.2876 l -0.40552,-0.0268 c -0.0224,0.16045 -0.0816,0.27937 -0.1782,0.35665 -0.0951,0.0773 -0.21391,0.1161 -0.35651,0.1161 -0.11444,0 -0.21094,-0.0233 -0.28966,-0.0692 -0.0772,-0.046 -0.13958,-0.11063 -0.1871,-0.19383 -0.0476,-0.0848 -0.0816,-0.18501 -0.10236,-0.30089 -0.0192,-0.11597 -0.0289,-0.24304 -0.0289,-0.38122 0,-0.15598 0.0102,-0.29195 0.0289,-0.40786 0.0207,-0.11597 0.0549,-0.2118 0.10236,-0.28758 0.0476,-0.0773 0.1091,-0.13443 0.18492,-0.17159 0.0772,-0.0385 0.17309,-0.058 0.28746,-0.058 0.15597,0 0.27623,0.0393 0.36089,0.118 0.0847,0.0788 0.13747,0.18501 0.15814,0.31875 l 0.41222,-0.0312 c -0.0192,-0.10109 -0.0526,-0.19542 -0.1002,-0.28306 -0.0476,-0.0877 -0.10999,-0.16359 -0.18724,-0.22745 -0.0759,-0.0655 -0.16634,-0.11661 -0.27182,-0.15367 -0.10554,-0.0371 -0.22572,-0.0557 -0.36091,-0.0557 z m 2.32605,0 c -0.14853,0 -0.28812,0.0224 -0.41884,0.0668 -0.13067,0.0431 -0.24517,0.11368 -0.34318,0.21182 -0.0981,0.098 -0.1753,0.2259 -0.23174,0.38339 -0.0565,0.15599 -0.0847,0.34698 -0.0847,0.57285 0,0.41905 0.0927,0.73484 0.27839,0.94734 0.18716,0.2125 0.45896,0.31874 0.81542,0.31874 0.16046,0 0.29717,-0.017 0.41005,-0.0512 0.11445,-0.0356 0.20937,-0.0801 0.28513,-0.1336 0.0757,-0.0549 0.13596,-0.11597 0.18053,-0.18283 0.046,-0.0684 0.0816,-0.13595 0.10707,-0.20276 l -0.35209,-0.10033 c -0.0371,0.10694 -0.10847,0.19537 -0.21389,0.26522 -0.10401,0.0699 -0.24286,0.10478 -0.41665,0.10478 -0.11889,0 -0.2205,-0.0207 -0.30515,-0.0623 -0.0848,-0.0431 -0.1545,-0.10249 -0.20951,-0.17833 -0.0535,-0.0773 -0.0936,-0.16862 -0.12029,-0.27413 -0.0252,-0.10707 -0.0379,-0.22371 -0.0379,-0.35005 h 1.71994 v -0.0535 c 0,-0.18129 -0.0179,-0.34996 -0.0535,-0.50601 -0.0341,-0.15598 -0.0928,-0.29121 -0.17599,-0.40564 -0.0816,-0.11597 -0.19091,-0.20654 -0.32757,-0.27193 -0.13512,-0.0655 -0.30371,-0.0982 -0.50571,-0.0982 z m -18.61707,0.0445 v 2.41178 h 0.62611 v -2.41178 z m 14.35267,0 v 2.41178 h 0.40111 v -2.41178 z m 4.25766,0.2519 c 0.20052,0 0.35432,0.0586 0.46125,0.17599 0.10707,0.11597 0.17156,0.30101 0.19384,0.55513 h -1.30111 c 0.006,-0.14555 0.0303,-0.26534 0.0735,-0.35895 0.0431,-0.0951 0.0956,-0.17015 0.15814,-0.22512 0.0624,-0.0549 0.12998,-0.0928 0.20276,-0.11368 0.0743,-0.0223 0.14488,-0.0334 0.21168,-0.0334 z m -11.79492,0.098 c 0.13805,0 0.24805,0.0492 0.32974,0.14721 0.0816,0.0965 0.12845,0.24214 0.14043,0.4368 h -0.93582 c 0.003,-0.10402 0.0172,-0.19312 0.0422,-0.26742 0.0253,-0.0744 0.058,-0.13442 0.098,-0.18051 0.0416,-0.0476 0.0899,-0.0818 0.14489,-0.1025 0.0565,-0.0224 0.1166,-0.0337 0.18053,-0.0334 z m -4.41362,0.0401 c 0.16786,0 0.29183,0.0661 0.37203,0.19849 0.0801,0.13234 0.12042,0.33497 0.12042,0.6084 0,0.29128 -0.0431,0.50306 -0.12927,0.63532 -0.0863,0.13081 -0.20871,0.19615 -0.36766,0.19616 -0.064,-1e-5 -0.12677,-0.0139 -0.1893,-0.0379 -0.0624,-0.0252 -0.1175,-0.0691 -0.16491,-0.1315 -0.0476,-0.0624 -0.0861,-0.14573 -0.11597,-0.24971 -0.0296,-0.10401 -0.0445,-0.23467 -0.0445,-0.3922 0,-0.16194 0.0149,-0.29576 0.0445,-0.40125 0.0296,-0.10707 0.069,-0.19168 0.118,-0.25411 0.0491,-0.064 0.10465,-0.10859 0.16705,-0.13373 0.0624,-0.0252 0.12551,-0.0379 0.18943,-0.0379 z m 3.85709,2.6938 v 0.70964 0.0509 l -2e-5,0.0762 c 8.5e-4,0.0259 10e-4,0.0514 10e-4,0.0763 8.8e-4,0.0237 0.001,0.0413 0.001,0.0525 l -0.003,1e-4 c -0.0565,-0.11063 -0.13095,-0.19137 -0.22345,-0.2422 -0.0926,-0.0509 -0.20825,-0.0763 -0.34707,-0.0763 -0.44923,0 -0.67385,0.31958 -0.67385,0.9587 0,0.31619 0.054,0.55216 0.1626,0.70798 0.10936,0.15583 0.27992,0.23379 0.51128,0.23379 0.13776,0 0.25284,-0.0253 0.3454,-0.0762 0.0937,-0.0509 0.16869,-0.13498 0.22513,-0.25242 l 0.006,4e-5 c -1e-5,0.0295 8.7e-4,0.0594 0.001,0.0898 8.6e-4,0.0294 0.003,0.0577 0.003,0.0848 0.003,0.027 0.003,0.0513 0.005,0.0729 0.003,0.0203 0.005,0.0361 0.006,0.0476 h 0.29121 c -8.5e-4,-0.0102 -0.003,-0.0269 -0.003,-0.0509 -8.7e-4,-0.0249 -0.003,-0.054 -0.003,-0.0881 -8.8e-4,-0.034 -0.003,-0.0712 -0.003,-0.1119 v -0.12704 -2.13583 z m 10.50969,0 v 0.29132 h 0.30478 v -0.29132 z m -15.35676,0.12703 v 2.38656 h 0.32339 v -2.38656 z m 2.20682,0.51996 c -0.079,2e-5 -0.14836,0.009 -0.2082,0.0254 -0.0598,0.0165 -0.11292,0.039 -0.15913,0.0694 -0.0462,0.0295 -0.0867,0.0654 -0.12195,0.10834 -0.0348,0.0429 -0.0673,0.0909 -0.0965,0.14406 l -0.005,6e-5 c 0,-0.0225 -8.6e-4,-0.0504 -0.001,-0.083 -8.8e-4,-0.034 -0.003,-0.0666 -0.005,-0.0984 -8.6e-4,-0.0328 -0.003,-0.0616 -0.003,-0.0863 -8.7e-4,-0.0249 -0.003,-0.0401 -0.003,-0.0459 h -0.28786 c 8.7e-4,0.009 0.003,0.0253 0.003,0.0525 8.5e-4,0.0271 0.003,0.0599 0.003,0.0984 8.6e-4,0.0373 0.001,0.0773 0.001,0.12029 8.7e-4,0.0417 0.001,0.0819 0.001,0.1203 v 1.44141 h 0.30465 v -1.06203 c 0,-0.0914 0.0114,-0.17219 0.034,-0.24218 0.0225,-0.0712 0.054,-0.13025 0.0946,-0.17782 0.0417,-0.0486 0.0914,-0.0852 0.14903,-0.11012 0.0586,-0.0259 0.12411,-0.0389 0.19644,-0.0389 0.0711,-1e-5 0.13025,0.009 0.17778,0.0237 0.0486,0.0149 0.0875,0.0407 0.11674,0.078 0.0294,0.0361 0.0503,0.084 0.0626,0.1439 0.0139,0.0599 0.0205,0.13442 0.0205,0.22357 v 1.162 h 0.30633 v -1.22123 c 0,-0.11292 -0.0114,-0.21002 -0.034,-0.29133 -0.0215,-0.0823 -0.0557,-0.14968 -0.10313,-0.20158 -0.0474,-0.052 -0.1077,-0.0904 -0.18116,-0.11521 -0.0734,-0.0249 -0.16095,-0.0373 -0.2625,-0.0373 z m 4.59,0 c -0.54742,0 -0.82114,0.31628 -0.82114,0.94862 0,0.16144 0.0181,0.30198 0.054,0.42168 0.0373,0.11851 0.0903,0.21733 0.15911,0.29638 0.0701,0.0791 0.15518,0.13791 0.25566,0.17626 0.10046,0.0384 0.21449,0.0575 0.34202,0.0575 0.26864,0 0.47354,-0.0786 0.61462,-0.23547 0.14108,-0.15697 0.21154,-0.3957 0.21154,-0.71638 0,-0.15814 -0.0149,-0.29652 -0.0473,-0.41508 -0.0317,-0.11852 -0.0807,-0.21734 -0.14737,-0.29639 -0.0655,-0.079 -0.15017,-0.13832 -0.25395,-0.17779 -0.10262,-0.0397 -0.22515,-0.0595 -0.36736,-0.0595 z m 2.52837,0 c -0.079,2e-5 -0.14836,0.009 -0.20817,0.0254 -0.0598,0.0165 -0.11292,0.039 -0.15913,0.0694 -0.0462,0.0295 -0.0867,0.0654 -0.12195,0.10834 -0.0348,0.0429 -0.0673,0.0909 -0.0965,0.14406 l -0.005,6e-5 c 1e-5,-0.0225 -8.6e-4,-0.0504 -0.001,-0.083 -8.7e-4,-0.034 -0.003,-0.0666 -0.005,-0.0984 -8.9e-4,-0.0328 -0.003,-0.0616 -0.003,-0.0863 -8.8e-4,-0.0249 -0.003,-0.0401 -0.003,-0.0459 h -0.28784 c 8.5e-4,0.009 0.003,0.0253 0.003,0.0525 8.6e-4,0.0271 0.003,0.0599 0.003,0.0984 8.7e-4,0.0373 0.001,0.0773 0.001,0.12029 8.6e-4,0.0417 10e-4,0.0819 10e-4,0.1203 v 1.44141 h 0.30466 v -1.06203 c 0,-0.0914 0.0114,-0.17219 0.034,-0.24218 0.0225,-0.0712 0.054,-0.13025 0.0946,-0.17782 0.0417,-0.0486 0.0913,-0.0852 0.14903,-0.11012 0.0586,-0.0259 0.12411,-0.0389 0.1964,-0.0389 0.0712,-1e-5 0.13053,0.009 0.17779,0.0237 0.0486,0.0149 0.0875,0.0407 0.11674,0.078 0.0295,0.0361 0.0504,0.084 0.0628,0.1439 0.0139,0.0599 0.0203,0.13442 0.0203,0.22357 v 1.162 h 0.30636 v -1.22123 c 0,-0.11292 -0.0114,-0.21002 -0.034,-0.29133 -0.0217,-0.0823 -0.0558,-0.14968 -0.10312,-0.20158 -0.0474,-0.052 -0.10784,-0.0904 -0.18118,-0.11521 -0.0734,-0.0249 -0.16095,-0.0373 -0.26249,-0.0373 z m 2.21718,0 c -0.11292,0 -0.21893,0.0168 -0.31823,0.0509 -0.0994,0.0328 -0.18633,0.0865 -0.26083,0.16094 -0.0745,0.0745 -0.13318,0.17163 -0.17599,0.29134 -0.0429,0.11864 -0.0643,0.26362 -0.0643,0.43525 0,0.31843 0.0704,0.55838 0.21167,0.71988 0.14223,0.16144 0.34876,0.24221 0.61966,0.24221 0.12195,0 0.22573,-0.0139 0.31149,-0.0389 0.0869,-0.0271 0.15912,-0.061 0.21675,-0.1016 0.0576,-0.0417 0.10313,-0.0881 0.13705,-0.13886 0.0349,-0.052 0.0622,-0.10325 0.0814,-0.15417 l -0.26755,-0.0763 c -0.0282,0.0814 -0.0823,0.14853 -0.1626,0.20159 -0.079,0.053 -0.18451,0.0796 -0.31657,0.0796 -0.0901,0 -0.16763,-0.0165 -0.23197,-0.0476 -0.0642,-0.0328 -0.1175,-0.0779 -0.15913,-0.13539 -0.0406,-0.0586 -0.0712,-0.12818 -0.0914,-0.20833 -0.0192,-0.0814 -0.0286,-0.16999 -0.0286,-0.26597 h 1.30693 v -0.0406 c 0,-0.13775 -0.0139,-0.26587 -0.0406,-0.38443 -0.0259,-0.11852 -0.0704,-0.22133 -0.13358,-0.30828 -0.0622,-0.0881 -0.14505,-0.15698 -0.24894,-0.20665 -0.10275,-0.0496 -0.2308,-0.0746 -0.38429,-0.0746 z m 5.76052,0 c -0.12411,0 -0.23022,0.0139 -0.31824,0.0373 -0.0868,0.0238 -0.15978,0.0576 -0.2184,0.1016 -0.0576,0.044 -0.10224,0.0966 -0.13358,0.15746 -0.0315,0.0598 -0.053,0.12615 -0.0644,0.19825 l 0.31835,0.0287 c 0.006,-0.0577 0.0208,-0.10504 0.0422,-0.1424 0.0215,-0.0384 0.0496,-0.0683 0.0848,-0.0898 0.0348,-0.0225 0.076,-0.0379 0.1236,-0.0459 0.0474,-0.009 0.10046,-0.0139 0.15912,-0.0139 0.0666,0 0.12411,0.009 0.17276,0.0237 0.0496,0.0149 0.0908,0.0384 0.1236,0.0712 0.0327,0.0328 0.057,0.0757 0.0727,0.12887 0.0165,0.053 0.0238,0.11737 0.0238,0.19306 l -10e-6,0.0999 -0.41145,0.006 c -0.0982,0.003 -0.19472,0.0114 -0.28953,0.0287 -0.095,0.0169 -0.17949,0.0474 -0.25397,0.0914 -0.0734,0.044 -0.13317,0.10503 -0.17935,0.18298 -0.0451,0.0769 -0.0676,0.17556 -0.0676,0.29636 2e-5,0.1694 0.0463,0.3026 0.13888,0.39973 0.0926,0.097 0.2307,0.1457 0.41469,0.1457 0.0858,-1e-5 0.16144,-0.009 0.22695,-0.0271 0.0666,-0.018 0.12563,-0.0434 0.17766,-0.0762 0.0519,-0.034 0.0971,-0.0745 0.13539,-0.12195 0.0397,-0.0476 0.0757,-0.10046 0.10834,-0.15913 h 0.0102 c 0.003,0.0609 0.0115,0.11457 0.0254,0.16078 0.0139,0.0451 0.0333,0.0837 0.0594,0.11521 0.0259,0.0305 0.0591,0.0537 0.0998,0.0694 0.0417,0.0149 0.0914,0.0219 0.14903,0.0219 0.0429,0 0.083,-0.003 0.1203,-0.006 0.0384,-0.005 0.0765,-0.0114 0.11508,-0.0203 v -0.18969 c -0.0165,0.003 -0.0322,0.006 -0.0491,0.009 -0.0168,0.003 -0.034,0.003 -0.0509,0.003 -0.0666,-2e-5 -0.11177,-0.0225 -0.1354,-0.0677 -0.0237,-0.0464 -0.0356,-0.11457 -0.0356,-0.20497 v -0.78931 c 0,-0.19985 -0.0581,-0.35235 -0.17432,-0.45736 -0.11622,-0.10605 -0.28957,-0.15912 -0.51981,-0.15912 z m -3.48595,0.005 c -0.22798,0 -0.40175,0.0439 -0.52138,0.13192 -0.11864,0.0868 -0.17781,0.21411 -0.17781,0.38121 1e-5,0.0868 0.0181,0.15912 0.054,0.21673 0.0361,0.0577 0.083,0.10618 0.14058,0.14571 0.0586,0.0384 0.12398,0.0694 0.1963,0.093 0.0721,0.0238 0.14505,0.0451 0.21841,0.0643 0.079,0.0214 0.15117,0.0413 0.21672,0.0593 0.0666,0.0169 0.12296,0.0373 0.16925,0.0609 0.0463,0.0239 0.0824,0.0537 0.10834,0.0898 0.0259,0.0349 0.039,0.0802 0.039,0.1354 -2e-5,0.054 -0.0114,0.0998 -0.034,0.13721 -0.0214,0.0361 -0.052,0.0654 -0.0914,0.0881 -0.0395,0.0214 -0.0869,0.0368 -0.14223,0.0459 -0.0541,0.009 -0.11419,0.0139 -0.17949,0.0139 -0.14456,0 -0.25727,-0.0225 -0.33851,-0.0675 -0.0813,-0.0464 -0.13498,-0.11865 -0.1608,-0.21685 l -0.26923,0.0525 c 0.0203,0.0857 0.0519,0.15862 0.095,0.21853 0.0441,0.0586 0.0982,0.10606 0.1626,0.14223 0.0642,0.0361 0.13874,0.0622 0.22345,0.0778 0.0858,0.0168 0.18176,0.0254 0.28784,0.0254 0.11851,0 0.22346,-0.0114 0.3149,-0.0356 0.0926,-0.0249 0.17042,-0.0598 0.23364,-0.10491 0.0632,-0.0464 0.11102,-0.10287 0.14389,-0.16939 0.034,-0.0676 0.0509,-0.14455 0.0509,-0.23031 -1e-5,-0.0656 -0.0102,-0.12309 -0.0287,-0.17275 -0.018,-0.0496 -0.043,-0.0933 -0.0745,-0.13053 -0.0317,-0.0373 -0.0689,-0.0689 -0.11178,-0.0946 -0.0417,-0.027 -0.0868,-0.0504 -0.1354,-0.0696 -0.0474,-0.0203 -0.0965,-0.0373 -0.14736,-0.0509 -0.0509,-0.0149 -0.10046,-0.0284 -0.14901,-0.0407 -0.0734,-0.0181 -0.14059,-0.0348 -0.20147,-0.0509 -0.0609,-0.0168 -0.11343,-0.0361 -0.1573,-0.0576 -0.0429,-0.0225 -0.0769,-0.0496 -0.1016,-0.0814 -0.0237,-0.0328 -0.0356,-0.0739 -0.0355,-0.12372 0,-0.0848 0.0328,-0.14787 0.0983,-0.18969 0.0655,-0.0417 0.16694,-0.0626 0.30466,-0.0627 0.052,0 0.10147,0.005 0.14902,0.0139 0.0486,0.009 0.0921,0.022 0.13053,0.0422 0.0384,0.0192 0.0711,0.0451 0.0982,0.078 0.0271,0.0317 0.0458,0.0712 0.0557,0.11851 l 0.27427,-0.034 c -0.0317,-0.15698 -0.10719,-0.27102 -0.22681,-0.34218 -0.11851,-0.0712 -0.27885,-0.10656 -0.4809,-0.10656 z m 1.53982,0.0286 v 1.83271 h 0.30478 v -1.83271 z m -10.99887,0.19136 c 0.079,0 0.14852,0.0139 0.20831,0.0374 0.0609,0.0239 0.11228,0.0632 0.15399,0.11864 0.0417,0.0553 0.0735,0.12804 0.0949,0.2184 0.0215,0.0893 0.032,0.19871 0.032,0.32858 0,0.1354 -0.0102,0.25012 -0.032,0.34384 -0.0214,0.0937 -0.0531,0.17004 -0.0949,0.22875 -0.0406,0.0576 -0.0919,0.0994 -0.15399,0.12538 -0.0609,0.0259 -0.1315,0.0389 -0.21168,0.0389 -0.0778,1e-5 -0.1439,-0.0139 -0.19808,-0.0406 -0.0542,-0.027 -0.0987,-0.0696 -0.13358,-0.1272 -0.0348,-0.0586 -0.0603,-0.13332 -0.0762,-0.22359 -0.0165,-0.0901 -0.0237,-0.1986 -0.0237,-0.32508 0,-0.13095 0.009,-0.24228 0.0253,-0.33375 0.0181,-0.0926 0.0451,-0.16766 0.0813,-0.22525 0.0361,-0.0576 0.0814,-0.0994 0.1354,-0.12538 0.054,-0.0259 0.11838,-0.039 0.19291,-0.039 z m 2.44396,2e-5 c 0.0765,0 0.14554,0.0114 0.2065,0.034 0.0609,0.0214 0.11241,0.0599 0.15416,0.11521 0.043,0.0553 0.075,0.12927 0.0965,0.22189 0.0225,0.0926 0.0339,0.21011 0.0339,0.35237 0,0.14225 -0.0114,0.26021 -0.0356,0.35393 -0.0237,0.0937 -0.0576,0.16825 -0.1016,0.22359 -0.044,0.0553 -0.0978,0.0943 -0.16077,0.11686 -0.0632,0.0214 -0.13359,0.032 -0.21154,0.032 -0.0701,0 -0.13498,-0.0114 -0.19475,-0.034 -0.0586,-0.0225 -0.10999,-0.0616 -0.15399,-0.11686 -0.043,-0.0553 -0.0768,-0.12927 -0.1016,-0.22188 -0.0249,-0.0937 -0.0373,-0.21166 -0.0373,-0.35395 0,-0.13886 0.0114,-0.25472 0.034,-0.34732 0.0237,-0.0926 0.0576,-0.16655 0.1016,-0.22189 0.0441,-0.0565 0.097,-0.0959 0.15897,-0.11839 0.0632,-0.0239 0.13372,-0.0357 0.21168,-0.0357 z m 4.73546,-2e-5 c 0.15234,2e-5 0.26917,0.0445 0.35044,0.13373 0.0814,0.0881 0.13025,0.22871 0.14738,0.42181 h -0.98872 c 0.005,-0.11063 0.023,-0.20157 0.0557,-0.27273 0.0327,-0.0721 0.0727,-0.12929 0.12004,-0.17106 0.0474,-0.0417 0.0988,-0.0704 0.15416,-0.0865 0.0565,-0.0168 0.11012,-0.0254 0.16078,-0.0254 z m 6.1517,0.73682 v 0.15085 c 0,0.0598 -0.0114,0.12246 -0.0356,0.188 -0.0237,0.0656 -0.0598,0.12601 -0.10822,0.1813 -0.0474,0.0553 -0.1077,0.10109 -0.18119,0.13719 -0.0721,0.0349 -0.15696,0.0525 -0.25395,0.0525 -0.0994,0 -0.17613,-0.0271 -0.23029,-0.0814 -0.0531,-0.054 -0.0795,-0.13095 -0.0795,-0.23031 1e-5,-0.0824 0.0149,-0.14902 0.044,-0.1999 0.0304,-0.0509 0.0712,-0.0904 0.12194,-0.11851 0.0509,-0.0282 0.10936,-0.0467 0.17613,-0.0557 0.0676,-0.0102 0.13874,-0.0165 0.2132,-0.0168 z m -13.57333,2.54585 c 0.59462,0 1.07419,0.4797 1.07419,1.07457 0,0.30759 -0.12886,0.58381 -0.33491,0.7795 0,-1.9e-4 -7.5e-4,-3.9e-4 -8.7e-4,-7.5e-4 -0.043,0.0408 -0.088,0.0797 -0.1372,0.11317 -0.0571,0.0385 -0.11814,0.0718 -0.18244,0.0988 v 0 c -0.0251,0.0102 -0.0526,0.0149 -0.0787,0.0244 8.6e-4,8.6e-4 0.003,0.001 0.003,0.003 -0.1077,0.0362 -0.22304,0.0568 -0.34332,0.0568 -0.5946,0 -1.07444,-0.48011 -1.07444,-1.07496 0,-0.59486 0.47984,-1.07457 1.07444,-1.07457 z m -0.34398,0.6163 c -0.0149,0 -0.0285,0.0139 -0.0285,0.0293 v 0.85937 c 0,0.0139 0.0139,0.0284 0.0279,0.0284 h 0.68727 c 0.0165,0 0.0295,-0.0139 0.0295,-0.0277 v -0.53432 c 2e-5,-0.0149 -0.001,-0.0222 -0.0139,-0.0328 l -0.30541,-0.30544 c -0.0102,-0.0102 -0.019,-0.0165 -0.0341,-0.0165 z m 0.68743,1e-4 -0.19034,8e-5 c -0.0244,2e-5 -0.0257,0.0253 -0.0139,0.0384 l 0.19047,0.19138 c 0.0149,0.0149 0.0414,0.0114 0.0414,-0.0139 v -0.18774 c 3e-5,-0.0149 -0.0139,-0.0295 -0.0287,-0.0295 z"
       style="color:#000000;font-style:normal;font-variant:normal;font-weight:normal;font-stretch:normal;font-size:medium;line-height:normal;font-family:sans-serif;font-variant-ligatures:normal;font-variant-position:normal;font-variant-caps:normal;font-variant-numeric:normal;font-variant-alternates:normal;font-feature-settings:normal;text-indent:0;text-align:start;text-decoration:none;text-decoration-line:none;text-decoration-style:solid;text-decoration-color:#000000;letter-spacing:normal;word-spacing:normal;text-transform:none;writing-mode:lr-tb;direction:ltr;text-orientation:mixed;dominant-baseline:auto;baseline-shift:baseline;text-anchor:start;white-space:normal;shape-padding:0;clip-rule:nonzero;display:inline;overflow:visible;visibility:visible;opacity:1;isolation:auto;mix-blend-mode:normal;color-interpolation:sRGB;color-interpolation-filters:linearRGB;solid-color:#000000;solid-opacity:1;vector-effect:none;fill:#ffffff;fill-opacity:1;fill-rule:nonzero;stroke:none;stroke-width:0.44497952;stroke-linecap:round;stroke-linejoin:bevel;stroke-miterlimit:4;stroke-dasharray:none;stroke-dashoffset:0;stroke-opacity:1;paint-order:markers fill stroke;color-rendering:auto;image-rendering:auto;shape-rendering:auto;text-rendering:auto;enable-background:accumulate" />
    <g
       id="g1025"
       style="fill:#ffffff"
       transform="matrix(0.96494406,0,0,0.96494406,62.863179,4.8420057)">
      <path
         style="fill:#ffffff;stroke-width:0.01181342"
         inkscape:connector-curvature="0"
         d="m -149.62004,169.71083 c 0.004,0.0538 0.004,0.10747 0.004,0.1612 0,1.63876 -1.2473,3.52699 -3.52699,3.52699 -0.70233,0 -1.35476,-0.20342 -1.90358,-0.55649 0.0998,0.0115 0.19573,0.0153 0.29935,0.0153 0.57951,0 1.11298,-0.19573 1.53898,-0.52962 -0.54497,-0.0115 -1.00168,-0.36843 -1.15904,-0.85968 0.0768,0.0115 0.15352,0.0192 0.23412,0.0192 0.1113,0 0.22261,-0.0154 0.32622,-0.0422 -0.568,-0.11515 -0.99402,-0.61407 -0.99402,-1.2166 v -0.0153 c 0.16502,0.0921 0.35693,0.14967 0.56033,0.15734 -0.3339,-0.2226 -0.55265,-0.60255 -0.55265,-1.03239 0,-0.23026 0.0614,-0.44135 0.16886,-0.62556 0.61023,0.75221 1.52748,1.24345 2.55601,1.29719 -0.0192,-0.0921 -0.0307,-0.18804 -0.0307,-0.284 0,-0.68314 0.55266,-1.23962 1.23963,-1.23962 0.35693,0 0.6793,0.14968 0.90574,0.39146 0.28015,-0.0538 0.5488,-0.15736 0.78676,-0.29935 -0.0921,0.28784 -0.28785,0.52963 -0.54498,0.68313 0.24947,-0.0269 0.49125,-0.0959 0.71385,-0.19189 -0.16885,0.24561 -0.37994,0.46436 -0.62172,0.64092 z"
         id="path967" />
      <g
         aria-label="@libreofficeid"
         style="font-style:normal;font-variant:normal;font-weight:500;font-stretch:normal;font-size:4.96252728px;line-height:12.60559654px;font-family:'Inter UI';-inkscape-font-specification:'Inter UI Medium';font-variant-ligatures:normal;font-variant-position:normal;font-variant-caps:normal;font-variant-numeric:normal;font-variant-alternates:normal;font-feature-settings:normal;text-indent:0;text-align:start;text-decoration:none;text-decoration-line:none;text-decoration-style:solid;text-decoration-color:#000000;letter-spacing:normal;word-spacing:normal;text-transform:none;writing-mode:lr-tb;direction:ltr;text-orientation:mixed;dominant-baseline:auto;baseline-shift:baseline;text-anchor:start;white-space:normal;shape-padding:0;opacity:1;vector-effect:none;fill:#ffffff;fill-opacity:1;fill-rule:nonzero;stroke:none;stroke-width:0.219797;stroke-linecap:round;stroke-linejoin:round;stroke-miterlimit:4;stroke-dasharray:none;stroke-dashoffset:0;stroke-opacity:1;paint-order:fill markers stroke"
         id="text1002">
        <path
           d="m -144.22255,168.80253 c -1.41157,0 -2.2416,0.86175 -2.24336,2.25041 0.002,1.4292 0.81064,2.24512 2.26803,2.24512 0.40708,0 0.87761,-0.11102 1.09613,-0.21323 l -0.12336,-0.38594 c -0.14803,0.0529 -0.55511,0.18152 -0.94986,0.18152 -1.186,0 -1.82218,-0.6538 -1.82218,-1.82394 0,-1.1208 0.62913,-1.84509 1.75698,-1.84509 1.03092,0 1.64595,0.66261 1.64419,1.55784 0.002,0.76482 -0.0969,1.10846 -0.41766,1.10846 -0.18151,0 -0.28196,-0.14803 -0.28196,-0.33307 v -1.63538 h -0.43352 v 0.19738 h -0.0229 c -0.0529,-0.15508 -0.3595,-0.2943 -0.72781,-0.25024 -0.50929,0.0599 -0.94633,0.48109 -0.94633,1.17542 0,0.72429 0.37007,1.20892 0.96395,1.23182 0.4018,0.0176 0.66261,-0.16917 0.74544,-0.37712 h 0.0212 c 0.0423,0.28372 0.34892,0.40885 0.65027,0.39827 0.75249,-0.0141 0.89523,-0.75425 0.89523,-1.49792 0,-1.06088 -0.72605,-1.98431 -2.07242,-1.98431 z m -0.13041,1.4803 c 0.43176,0 0.62561,0.19033 0.62737,0.72605 0.002,0.54983 -0.17623,0.82298 -0.63442,0.82298 -0.45995,0 -0.61855,-0.39475 -0.62031,-0.82121 0.002,-0.40532 0.22909,-0.72782 0.62736,-0.72782 z"
           style="font-style:normal;font-variant:normal;font-weight:500;font-stretch:normal;font-family:'Inter UI';-inkscape-font-specification:'Inter UI Medium';text-align:start;text-anchor:start;fill:#ffffff;stroke:none;stroke-width:0.219797"
           id="path1127" />
        <path
           d="m -141.04607,168.70737 h -0.52692 v 3.60911 h 0.52692 z"
           style="font-style:normal;font-variant:normal;font-weight:500;font-stretch:normal;font-family:'Inter UI';-inkscape-font-specification:'Inter UI Medium';text-align:start;text-anchor:start;fill:#ffffff;stroke:none;stroke-width:0.219797"
           id="path1129" />
        <path
           d="m -140.34205,172.31648 h 0.52692 v -2.70683 h -0.52692 z m 0.2661,-3.11039 c 0.17975,0 0.33307,-0.13922 0.33307,-0.31368 0,-0.17446 -0.15332,-0.31545 -0.33307,-0.31545 -0.18151,0 -0.33307,0.14099 -0.33307,0.31545 0,0.17446 0.15156,0.31368 0.33307,0.31368 z"
           style="font-style:normal;font-variant:normal;font-weight:500;font-stretch:normal;font-family:'Inter UI';-inkscape-font-specification:'Inter UI Medium';text-align:start;text-anchor:start;fill:#ffffff;stroke:none;stroke-width:0.219797"
           id="path1131" />
        <path
           d="m -139.11111,172.31648 h 0.51458 v -0.42118 h 0.0441 c 0.0952,0.1727 0.28901,0.47405 0.78244,0.47405 0.65556,0 1.13137,-0.52515 1.13137,-1.401 0,-0.8776 -0.48286,-1.39395 -1.13666,-1.39395 -0.50224,0 -0.68375,0.30664 -0.77715,0.47405 h -0.0317 v -1.34108 h -0.52691 z m 0.51634,-1.35341 c 0,-0.56569 0.24672,-0.94105 0.70667,-0.94105 0.47757,0 0.71724,0.40356 0.71724,0.94105 0,0.54277 -0.24672,0.9569 -0.71724,0.9569 -0.4529,0 -0.70667,-0.38769 -0.70667,-0.9569 z"
           style="font-style:normal;font-variant:normal;font-weight:500;font-stretch:normal;font-family:'Inter UI';-inkscape-font-specification:'Inter UI Medium';text-align:start;text-anchor:start;fill:#ffffff;stroke:none;stroke-width:0.219797"
           id="path1133" />
        <path
           d="m -136.0483,172.31648 h 0.52691 v -1.653 c 0,-0.35245 0.27315,-0.60798 0.63794,-0.60798 0.10221,0 0.18152,0.0212 0.24496,0.0529 l 0.16917,-0.44057 c -0.0899,-0.0599 -0.20618,-0.0987 -0.35421,-0.0987 -0.32073,0 -0.5886,0.17975 -0.68728,0.47052 h -0.0282 v -0.42999 h -0.50929 z"
           style="font-style:normal;font-variant:normal;font-weight:500;font-stretch:normal;font-family:'Inter UI';-inkscape-font-specification:'Inter UI Medium';text-align:start;text-anchor:start;fill:#ffffff;stroke:none;stroke-width:0.219797"
           id="path1135" />
        <path
           d="m -133.00135,172.37111 c 0.59036,0 1.00801,-0.29077 1.12785,-0.73134 l -0.49872,-0.0899 c -0.0952,0.25553 -0.32426,0.38593 -0.62385,0.38593 -0.45113,0 -0.75424,-0.29253 -0.76834,-0.81416 h 1.92439 v -0.1868 c 0,-0.97806 -0.58507,-1.36047 -1.19834,-1.36047 -0.75425,0 -1.2512,0.5745 -1.2512,1.40629 0,0.8406 0.4899,1.39042 1.28821,1.39042 z m -0.7613,-1.64419 c 0.0212,-0.38417 0.29959,-0.71724 0.72781,-0.71724 0.40885,0 0.67671,0.30311 0.67848,0.71724 z"
           style="font-style:normal;font-variant:normal;font-weight:500;font-stretch:normal;font-family:'Inter UI';-inkscape-font-specification:'Inter UI Medium';text-align:start;text-anchor:start;fill:#ffffff;stroke:none;stroke-width:0.219797"
           id="path1137" />
        <path
           d="m -130.11036,172.37111 c 0.76306,0 1.26178,-0.55863 1.26178,-1.39571 0,-0.84236 -0.49872,-1.401 -1.26178,-1.401 -0.76306,0 -1.26178,0.55864 -1.26178,1.401 0,0.83708 0.49872,1.39571 1.26178,1.39571 z m 0.002,-0.44232 c -0.49872,0 -0.73134,-0.43528 -0.73134,-0.95515 0,-0.51811 0.23262,-0.95867 0.73134,-0.95867 0.49519,0 0.72781,0.44056 0.72781,0.95867 0,0.51987 -0.23262,0.95515 -0.72781,0.95515 z"
           style="font-style:normal;font-variant:normal;font-weight:500;font-stretch:normal;font-family:'Inter UI';-inkscape-font-specification:'Inter UI Medium';text-align:start;text-anchor:start;fill:#ffffff;stroke:none;stroke-width:0.219797"
           id="path1139" />
        <path
           d="m -126.96825,169.60965 h -0.58331 v -0.24319 c 0,-0.23967 0.0987,-0.37008 0.35598,-0.37008 0.10926,0 0.1868,0.0247 0.23614,0.0405 l 0.12336,-0.42646 c -0.074,-0.0282 -0.22733,-0.0723 -0.44057,-0.0723 -0.42823,0 -0.80359,0.25025 -0.80359,0.75778 v 0.31368 h -0.41765 v 0.42294 h 0.41765 v 2.28389 h 0.52868 v -2.28389 h 0.58331 z"
           style="font-style:normal;font-variant:normal;font-weight:500;font-stretch:normal;font-family:'Inter UI';-inkscape-font-specification:'Inter UI Medium';text-align:start;text-anchor:start;fill:#ffffff;stroke:none;stroke-width:0.219797"
           id="path1141" />
        <path
           d="M -125.12669,169.60965 H -125.71 v -0.24319 c 0,-0.23967 0.0987,-0.37008 0.35598,-0.37008 0.10926,0 0.1868,0.0247 0.23614,0.0405 l 0.12336,-0.42646 c -0.074,-0.0282 -0.22733,-0.0723 -0.44056,-0.0723 -0.42823,0 -0.8036,0.25025 -0.8036,0.75778 v 0.31368 h -0.41765 v 0.42294 h 0.41765 v 2.28389 h 0.52868 v -2.28389 h 0.58331 z"
           style="font-style:normal;font-variant:normal;font-weight:500;font-stretch:normal;font-family:'Inter UI';-inkscape-font-specification:'Inter UI Medium';text-align:start;text-anchor:start;fill:#ffffff;stroke:none;stroke-width:0.219797"
           id="path1143" />
        <path
           d="m -124.58215,172.31648 h 0.52692 v -2.70683 h -0.52692 z m 0.2661,-3.11039 c 0.17975,0 0.33307,-0.13922 0.33307,-0.31368 0,-0.17446 -0.15332,-0.31545 -0.33307,-0.31545 -0.18151,0 -0.33307,0.14099 -0.33307,0.31545 0,0.17446 0.15156,0.31368 0.33307,0.31368 z"
           style="font-style:normal;font-variant:normal;font-weight:500;font-stretch:normal;font-family:'Inter UI';-inkscape-font-specification:'Inter UI Medium';text-align:start;text-anchor:start;fill:#ffffff;stroke:none;stroke-width:0.219797"
           id="path1145" />
        <path
           d="m -122.21103,172.37111 c 0.6397,0 1.05383,-0.38417 1.11199,-0.91109 h -0.51282 c -0.067,0.29254 -0.2943,0.46524 -0.59564,0.46524 -0.44586,0 -0.7331,-0.37184 -0.7331,-0.96219 0,-0.57979 0.29253,-0.94458 0.7331,-0.94458 0.33483,0 0.53925,0.21148 0.59564,0.46524 h 0.51282 c -0.0564,-0.5463 -0.50225,-0.90933 -1.11727,-0.90933 -0.76306,0 -1.2565,0.5745 -1.2565,1.401 0,0.81593 0.47581,1.39571 1.26178,1.39571 z"
           style="font-style:normal;font-variant:normal;font-weight:500;font-stretch:normal;font-family:'Inter UI';-inkscape-font-specification:'Inter UI Medium';text-align:start;text-anchor:start;fill:#ffffff;stroke:none;stroke-width:0.219797"
           id="path1147" />
        <path
           d="m -119.36409,172.37111 c 0.59035,0 1.00801,-0.29077 1.12784,-0.73134 l -0.49872,-0.0899 c -0.0952,0.25553 -0.32425,0.38593 -0.62384,0.38593 -0.45114,0 -0.75425,-0.29253 -0.76834,-0.81416 h 1.92439 v -0.1868 c 0,-0.97806 -0.58508,-1.36047 -1.19834,-1.36047 -0.75425,0 -1.25121,0.5745 -1.25121,1.40629 0,0.8406 0.48991,1.39042 1.28822,1.39042 z m -0.7613,-1.64419 c 0.0211,-0.38417 0.29958,-0.71724 0.72781,-0.71724 0.40885,0 0.67671,0.30311 0.67847,0.71724 z"
           style="font-style:normal;font-variant:normal;font-weight:500;font-stretch:normal;font-family:'Inter UI';-inkscape-font-specification:'Inter UI Medium';text-align:start;text-anchor:start;fill:#ffffff;stroke:none;stroke-width:0.219797"
           id="path1149" />
        <path
           d="m -117.61329,172.31648 h 0.52692 v -2.70683 h -0.52692 z m 0.2661,-3.11039 c 0.17975,0 0.33307,-0.13922 0.33307,-0.31368 0,-0.17446 -0.15332,-0.31545 -0.33307,-0.31545 -0.18151,0 -0.33306,0.14099 -0.33306,0.31545 0,0.17446 0.15155,0.31368 0.33306,0.31368 z"
           style="font-style:normal;font-variant:normal;font-weight:500;font-stretch:normal;font-family:'Inter UI';-inkscape-font-specification:'Inter UI Medium';text-align:start;text-anchor:start;fill:#ffffff;stroke:none;stroke-width:0.219797"
           id="path1151" />
        <path
           d="m -114.02797,172.31648 v -3.60911 h -0.52691 v 1.34108 h -0.0317 c -0.0934,-0.16741 -0.27492,-0.47405 -0.77716,-0.47405 -0.6538,0 -1.13666,0.51635 -1.13666,1.39395 0,0.87585 0.47581,1.401 1.13137,1.401 0.49343,0 0.68728,-0.30135 0.78245,-0.47405 h 0.044 v 0.42118 z m -0.51634,-1.35341 c 0,0.56921 -0.25377,0.9569 -0.70667,0.9569 -0.47052,0 -0.71724,-0.41413 -0.71724,-0.9569 0,-0.53749 0.23967,-0.94105 0.71724,-0.94105 0.45995,0 0.70667,0.37536 0.70667,0.94105 z"
           style="font-style:normal;font-variant:normal;font-weight:500;font-stretch:normal;font-family:'Inter UI';-inkscape-font-specification:'Inter UI Medium';text-align:start;text-anchor:start;fill:#ffffff;stroke:none;stroke-width:0.219797"
           id="path1153" />
      </g>
    </g>
    <g
       id="g1020"
       style="fill:#ffffff"
       transform="matrix(0.96494406,0,0,0.96494406,-46.809107,2.7660615)">
      <path
         style="fill:#ffffff;fill-opacity:1;stroke-width:0.01181342"
         inkscape:connector-curvature="0"
         d="m -95.907871,171.37199 -0.79859,3.76611 c -0.0602,0.2658 -0.21737,0.33196 -0.44064,0.20673 l -1.216781,-0.89663 -0.587124,0.56468 c -0.065,0.065 -0.11932,0.11931 -0.24454,0.11931 l 0.0874,-1.23923 2.255165,-2.03781 c 0.0981,-0.0874 -0.0212,-0.13585 -0.15239,-0.0485 l -2.787952,1.75548 -1.200247,-0.37567 c -0.26108,-0.0815 -0.2658,-0.26107 0.0544,-0.38629 l 4.694639,-1.80864 c 0.21737,-0.0815 0.40756,0.0485 0.33669,0.38039 z"
         id="path978" />
      <g
         aria-label="t.me/libreofficeid"
         style="font-style:normal;font-variant:normal;font-weight:500;font-stretch:normal;font-size:4.96252728px;line-height:12.60559654px;font-family:'Inter UI';-inkscape-font-specification:'Inter UI Medium';font-variant-ligatures:normal;font-variant-position:normal;font-variant-caps:normal;font-variant-numeric:normal;font-variant-alternates:normal;font-feature-settings:normal;text-indent:0;text-align:start;text-decoration:none;text-decoration-line:none;text-decoration-style:solid;text-decoration-color:#000000;letter-spacing:normal;word-spacing:normal;text-transform:none;writing-mode:lr-tb;direction:ltr;text-orientation:mixed;dominant-baseline:auto;baseline-shift:baseline;text-anchor:start;white-space:normal;shape-padding:0;opacity:1;vector-effect:none;fill:#ffffff;fill-opacity:1;fill-rule:nonzero;stroke:none;stroke-width:0.219797;stroke-linecap:round;stroke-linejoin:round;stroke-miterlimit:4;stroke-dasharray:none;stroke-dashoffset:0;stroke-opacity:1;paint-order:fill markers stroke"
         id="text1006">
        <path
           d="m -91.623577,171.85379 h -0.555113 v -0.64851 h -0.526916 v 0.64851 h -0.396508 v 0.42294 h 0.396508 v 1.59661 c -0.0018,0.48991 0.3736,0.72782 0.789493,0.72077 0.167415,-0.002 0.2802,-0.0335 0.341879,-0.0564 l -0.09516,-0.43527 c -0.03524,0.007 -0.100449,0.0229 -0.185038,0.0229 -0.170939,0 -0.326018,-0.0564 -0.324256,-0.36126 v -1.48735 h 0.555113 z"
           style="font-style:normal;font-variant:normal;font-weight:500;font-stretch:normal;font-family:'Inter UI';-inkscape-font-specification:'Inter UI Medium';text-align:start;text-anchor:start;fill:#ffffff;stroke:none;stroke-width:0.219797"
           id="path1156" />
        <path
           d="m -90.669313,174.59411 c 0.193849,0 0.354215,-0.15685 0.354215,-0.35246 0,-0.18856 -0.160366,-0.3454 -0.354215,-0.3454 -0.188562,0 -0.352452,0.15156 -0.352452,0.3454 0,0.19561 0.158603,0.35246 0.352452,0.35246 z"
           style="font-style:normal;font-variant:normal;font-weight:500;font-stretch:normal;font-family:'Inter UI';-inkscape-font-specification:'Inter UI Medium';text-align:start;text-anchor:start;fill:#ffffff;stroke:none;stroke-width:0.219797"
           id="path1158" />
        <path
           d="m -89.611075,174.56062 h 0.526916 v -1.66886 c 0,-0.36479 0.255528,-0.61855 0.555112,-0.61855 0.292536,0 0.495196,0.19385 0.495196,0.48814 v 1.79927 h 0.525153 v -1.72525 c 0,-0.32602 0.199136,-0.56216 0.542777,-0.56216 0.278437,0 0.507531,0.15508 0.507531,0.52163 v 1.76578 h 0.526916 v -1.81513 c 0,-0.61855 -0.345403,-0.92695 -0.835312,-0.92695 -0.389459,0 -0.681995,0.1868 -0.812402,0.47582 h -0.0282 c -0.118072,-0.29606 -0.366551,-0.47582 -0.727814,-0.47582 -0.357739,0 -0.623841,0.17799 -0.736625,0.47582 h -0.03348 v -0.44057 h -0.505769 z"
           style="font-style:normal;font-variant:normal;font-weight:500;font-stretch:normal;font-family:'Inter UI';-inkscape-font-specification:'Inter UI Medium';text-align:start;text-anchor:start;fill:#ffffff;stroke:none;stroke-width:0.219797"
           id="path1160" />
        <path
           d="m -84.063477,174.61525 c 0.590357,0 1.008013,-0.29077 1.127847,-0.73134 l -0.49872,-0.0899 c -0.09516,0.25553 -0.324256,0.38593 -0.623841,0.38593 -0.451138,0 -0.754247,-0.29253 -0.768345,-0.81416 h 1.924389 v -0.1868 c 0,-0.97805 -0.585071,-1.36047 -1.198338,-1.36047 -0.754248,0 -1.251205,0.5745 -1.251205,1.40629 0,0.8406 0.489908,1.39042 1.288213,1.39042 z m -0.761297,-1.64419 c 0.02115,-0.38417 0.299584,-0.71724 0.727814,-0.71724 0.408844,0 0.676708,0.30311 0.67847,0.71724 z"
           style="font-style:normal;font-variant:normal;font-weight:500;font-stretch:normal;font-family:'Inter UI';-inkscape-font-specification:'Inter UI Medium';text-align:start;text-anchor:start;fill:#ffffff;stroke:none;stroke-width:0.219797"
           id="path1162" />
        <path
           d="m -80.938107,170.78234 h -0.470524 l -1.163092,4.32106 h 0.470523 z"
           style="font-style:normal;font-variant:normal;font-weight:500;font-stretch:normal;font-family:'Inter UI';-inkscape-font-specification:'Inter UI Medium';text-align:start;text-anchor:start;fill:#ffffff;stroke:none;stroke-width:0.219797"
           id="path1164" />
        <path
           d="m -79.963577,170.95151 h -0.526916 v 3.60911 h 0.526916 z"
           style="font-style:normal;font-variant:normal;font-weight:500;font-stretch:normal;font-family:'Inter UI';-inkscape-font-specification:'Inter UI Medium';text-align:start;text-anchor:start;fill:#ffffff;stroke:none;stroke-width:0.219797"
           id="path1166" />
        <path
           d="m -79.259553,174.56062 h 0.526916 v -2.70683 h -0.526916 z m 0.266101,-3.11039 c 0.179751,0 0.333068,-0.13922 0.333068,-0.31368 0,-0.17446 -0.153317,-0.31544 -0.333068,-0.31544 -0.181513,0 -0.333067,0.14098 -0.333067,0.31544 0,0.17446 0.151554,0.31368 0.333067,0.31368 z"
           style="font-style:normal;font-variant:normal;font-weight:500;font-stretch:normal;font-family:'Inter UI';-inkscape-font-specification:'Inter UI Medium';text-align:start;text-anchor:start;fill:#ffffff;stroke:none;stroke-width:0.219797"
           id="path1168" />
        <path
           d="m -78.028614,174.56062 h 0.51458 v -0.42118 h 0.04406 c 0.09516,0.1727 0.28901,0.47405 0.782443,0.47405 0.655562,0 1.131372,-0.52515 1.131372,-1.401 0,-0.8776 -0.482859,-1.39395 -1.136658,-1.39395 -0.502245,0 -0.683758,0.30664 -0.777157,0.47405 h -0.03172 v -1.34108 h -0.526916 z m 0.516342,-1.35341 c 0,-0.56569 0.246717,-0.94105 0.706667,-0.94105 0.477573,0 0.71724,0.40356 0.71724,0.94105 0,0.54277 -0.246716,0.9569 -0.71724,0.9569 -0.452901,0 -0.706667,-0.38769 -0.706667,-0.9569 z"
           style="font-style:normal;font-variant:normal;font-weight:500;font-stretch:normal;font-family:'Inter UI';-inkscape-font-specification:'Inter UI Medium';text-align:start;text-anchor:start;fill:#ffffff;stroke:none;stroke-width:0.219797"
           id="path1170" />
        <path
           d="m -74.965804,174.56062 h 0.526916 v -1.653 c 0,-0.35245 0.27315,-0.60798 0.637938,-0.60798 0.102211,0 0.181513,0.0211 0.244955,0.0529 l 0.169177,-0.44057 c -0.08988,-0.0599 -0.206185,-0.0987 -0.354215,-0.0987 -0.320731,0 -0.588595,0.17975 -0.687282,0.47052 h -0.0282 v -0.42999 h -0.509293 z"
           style="font-style:normal;font-variant:normal;font-weight:500;font-stretch:normal;font-family:'Inter UI';-inkscape-font-specification:'Inter UI Medium';text-align:start;text-anchor:start;fill:#ffffff;stroke:none;stroke-width:0.219797"
           id="path1172" />
        <path
           d="m -71.918854,174.61525 c 0.590357,0 1.008013,-0.29077 1.127847,-0.73134 l -0.49872,-0.0899 c -0.09516,0.25553 -0.324256,0.38593 -0.623841,0.38593 -0.451139,0 -0.754247,-0.29253 -0.768346,-0.81416 h 1.92439 v -0.1868 c 0,-0.97805 -0.585071,-1.36047 -1.198338,-1.36047 -0.754248,0 -1.251205,0.5745 -1.251205,1.40629 0,0.8406 0.489908,1.39042 1.288213,1.39042 z m -0.761297,-1.64419 c 0.02115,-0.38417 0.299584,-0.71724 0.727814,-0.71724 0.408844,0 0.676708,0.30311 0.67847,0.71724 z"
           style="font-style:normal;font-variant:normal;font-weight:500;font-stretch:normal;font-family:'Inter UI';-inkscape-font-specification:'Inter UI Medium';text-align:start;text-anchor:start;fill:#ffffff;stroke:none;stroke-width:0.219797"
           id="path1174" />
        <path
           d="m -69.027865,174.61525 c 0.763059,0 1.261779,-0.55863 1.261779,-1.39571 0,-0.84236 -0.49872,-1.401 -1.261779,-1.401 -0.763059,0 -1.261779,0.55864 -1.261779,1.401 0,0.83708 0.49872,1.39571 1.261779,1.39571 z m 0.0018,-0.44232 c -0.49872,0 -0.731338,-0.43528 -0.731338,-0.95515 0,-0.5181 0.232618,-0.95867 0.731338,-0.95867 0.495195,0 0.727814,0.44057 0.727814,0.95867 0,0.51987 -0.232619,0.95515 -0.727814,0.95515 z"
           style="font-style:normal;font-variant:normal;font-weight:500;font-stretch:normal;font-family:'Inter UI';-inkscape-font-specification:'Inter UI Medium';text-align:start;text-anchor:start;fill:#ffffff;stroke:none;stroke-width:0.219797"
           id="path1176" />
        <path
           d="m -65.885754,171.85379 h -0.583309 v -0.24319 c 0,-0.23967 0.09869,-0.37008 0.355977,-0.37008 0.10926,0 0.1868,0.0247 0.236143,0.0405 l 0.123358,-0.42647 c -0.07402,-0.0282 -0.227331,-0.0722 -0.440565,-0.0722 -0.42823,0 -0.803591,0.25024 -0.803591,0.75777 v 0.31368 h -0.417656 v 0.42294 h 0.417656 v 2.28389 h 0.528678 v -2.28389 h 0.583309 z"
           style="font-style:normal;font-variant:normal;font-weight:500;font-stretch:normal;font-family:'Inter UI';-inkscape-font-specification:'Inter UI Medium';text-align:start;text-anchor:start;fill:#ffffff;stroke:none;stroke-width:0.219797"
           id="path1178" />
        <path
           d="m -64.044192,171.85379 h -0.583309 v -0.24319 c 0,-0.23967 0.09869,-0.37008 0.355977,-0.37008 0.10926,0 0.1868,0.0247 0.236143,0.0405 l 0.123358,-0.42647 c -0.07401,-0.0282 -0.227331,-0.0722 -0.440565,-0.0722 -0.428229,0 -0.803591,0.25024 -0.803591,0.75777 v 0.31368 h -0.417656 v 0.42294 h 0.417656 v 2.28389 h 0.528678 v -2.28389 h 0.583309 z"
           style="font-style:normal;font-variant:normal;font-weight:500;font-stretch:normal;font-family:'Inter UI';-inkscape-font-specification:'Inter UI Medium';text-align:start;text-anchor:start;fill:#ffffff;stroke:none;stroke-width:0.219797"
           id="path1180" />
        <path
           d="m -63.499652,174.56062 h 0.526916 v -2.70683 h -0.526916 z m 0.266101,-3.11039 c 0.179751,0 0.333068,-0.13922 0.333068,-0.31368 0,-0.17446 -0.153317,-0.31544 -0.333068,-0.31544 -0.181513,0 -0.333067,0.14098 -0.333067,0.31544 0,0.17446 0.151554,0.31368 0.333067,0.31368 z"
           style="font-style:normal;font-variant:normal;font-weight:500;font-stretch:normal;font-family:'Inter UI';-inkscape-font-specification:'Inter UI Medium';text-align:start;text-anchor:start;fill:#ffffff;stroke:none;stroke-width:0.219797"
           id="path1182" />
        <path
           d="m -61.128531,174.61525 c 0.639701,0 1.053832,-0.38417 1.111987,-0.91109 h -0.512818 c -0.06697,0.29254 -0.294298,0.46524 -0.595645,0.46524 -0.445852,0 -0.7331,-0.37184 -0.7331,-0.96219 0,-0.57979 0.292535,-0.94458 0.7331,-0.94458 0.33483,0 0.539252,0.21148 0.595645,0.46524 h 0.512818 c -0.05639,-0.5463 -0.502245,-0.90933 -1.117274,-0.90933 -0.763059,0 -1.256492,0.5745 -1.256492,1.401 0,0.81593 0.47581,1.39571 1.261779,1.39571 z"
           style="font-style:normal;font-variant:normal;font-weight:500;font-stretch:normal;font-family:'Inter UI';-inkscape-font-specification:'Inter UI Medium';text-align:start;text-anchor:start;fill:#ffffff;stroke:none;stroke-width:0.219797"
           id="path1184" />
        <path
           d="m -58.281598,174.61525 c 0.590358,0 1.008013,-0.29077 1.127847,-0.73134 l -0.49872,-0.0899 c -0.09516,0.25553 -0.324256,0.38593 -0.62384,0.38593 -0.451139,0 -0.754248,-0.29253 -0.768346,-0.81416 h 1.924389 v -0.1868 c 0,-0.97805 -0.58507,-1.36047 -1.198337,-1.36047 -0.754248,0 -1.251206,0.5745 -1.251206,1.40629 0,0.8406 0.489909,1.39042 1.288213,1.39042 z m -0.761297,-1.64419 c 0.02115,-0.38417 0.299585,-0.71724 0.727814,-0.71724 0.408845,0 0.676708,0.30311 0.678471,0.71724 z"
           style="font-style:normal;font-variant:normal;font-weight:500;font-stretch:normal;font-family:'Inter UI';-inkscape-font-specification:'Inter UI Medium';text-align:start;text-anchor:start;fill:#ffffff;stroke:none;stroke-width:0.219797"
           id="path1186" />
        <path
           d="m -56.530791,174.56062 h 0.526916 v -2.70683 h -0.526916 z m 0.266101,-3.11039 c 0.179751,0 0.333067,-0.13922 0.333067,-0.31368 0,-0.17446 -0.153316,-0.31544 -0.333067,-0.31544 -0.181513,0 -0.333067,0.14098 -0.333067,0.31544 0,0.17446 0.151554,0.31368 0.333067,0.31368 z"
           style="font-style:normal;font-variant:normal;font-weight:500;font-stretch:normal;font-family:'Inter UI';-inkscape-font-specification:'Inter UI Medium';text-align:start;text-anchor:start;fill:#ffffff;stroke:none;stroke-width:0.219797"
           id="path1188" />
        <path
           d="m -52.945473,174.56062 v -3.60911 h -0.526916 v 1.34108 h -0.03172 c -0.0934,-0.16741 -0.274913,-0.47405 -0.777158,-0.47405 -0.653798,0 -1.136658,0.51635 -1.136658,1.39395 0,0.87585 0.47581,1.401 1.131372,1.401 0.493433,0 0.687281,-0.30135 0.782444,-0.47405 h 0.04406 v 0.42118 z m -0.516342,-1.35341 c 0,0.56921 -0.253766,0.9569 -0.706667,0.9569 -0.470524,0 -0.71724,-0.41413 -0.71724,-0.9569 0,-0.53749 0.239667,-0.94105 0.71724,-0.94105 0.45995,0 0.706667,0.37536 0.706667,0.94105 z"
           style="font-style:normal;font-variant:normal;font-weight:500;font-stretch:normal;font-family:'Inter UI';-inkscape-font-specification:'Inter UI Medium';text-align:start;text-anchor:start;fill:#ffffff;stroke:none;stroke-width:0.219797"
           id="path1190" />
      </g>
    </g>
    <g
       id="g1015"
       style="fill:#ffffff"
       transform="translate(-188.96676,-105.79345)">
      <path
         style="fill:#ffffff;fill-opacity:1;stroke-width:0.01181342"
         inkscape:connector-curvature="0"
         d="m -151.77672,193.0332 v 1.69287 c 0,0.15711 -0.12641,0.28351 -0.28352,0.28351 h -1.37036 c -0.078,0 -0.14176,-0.0638 -0.14176,-0.14176 v -1.3231 c 0,-0.078 -0.0638,-0.14176 -0.14176,-0.14176 h -0.85057 c -0.078,0 -0.14176,0.0638 -0.14176,0.14176 v 1.3231 c 0,0.078 -0.0638,0.14176 -0.14176,0.14176 h -1.37036 c -0.15712,0 -0.28352,-0.1264 -0.28352,-0.28351 v -1.69287 c 0,-0.0425 0.0189,-0.0827 0.052,-0.10986 l 2.22092,-1.82872 c 0.052,-0.0425 0.12759,-0.0425 0.18075,0 l 2.22092,1.82872 c 0.0319,0.0272 0.0508,0.0674 0.0508,0.10986 z m 0.9876,-0.71943 -0.9876,-0.81395 v -1.63616 c 0,-0.078 -0.0638,-0.14176 -0.14176,-0.14176 h -0.66156 c -0.078,0 -0.14176,0.0638 -0.14176,0.14176 v 0.85766 l -1.05729,-0.87065 c -0.2091,-0.17248 -0.51152,-0.17248 -0.72062,0 l -2.98998,2.4631 c -0.0602,0.0496 -0.0685,0.13939 -0.0189,0.19964 l 0.30123,0.36622 c 0.0496,0.0602 0.1394,0.0685 0.19965,0.0189 l 2.77852,-2.28826 c 0.052,-0.0426 0.12758,-0.0426 0.18074,0 l 2.77852,2.28826 c 0.0602,0.0496 0.15002,0.0413 0.19964,-0.0189 l 0.30124,-0.36622 c 0.0496,-0.0614 0.0401,-0.15002 -0.0201,-0.19964 z"
         id="path989" />
      <text
         xml:space="preserve"
         style="font-style:normal;font-variant:normal;font-weight:500;font-stretch:normal;font-size:4.96252728px;line-height:12.60559654px;font-family:'Inter UI';-inkscape-font-specification:'Inter UI Medium';font-variant-ligatures:normal;font-variant-position:normal;font-variant-caps:normal;font-variant-numeric:normal;font-variant-alternates:normal;font-feature-settings:normal;text-indent:0;text-align:start;text-decoration:none;text-decoration-line:none;text-decoration-style:solid;text-decoration-color:#000000;letter-spacing:normal;word-spacing:normal;text-transform:none;writing-mode:lr-tb;direction:ltr;text-orientation:mixed;dominant-baseline:auto;baseline-shift:baseline;text-anchor:start;white-space:normal;shape-padding:0;opacity:1;vector-effect:none;fill:#ffffff;fill-opacity:1;fill-rule:nonzero;stroke:none;stroke-width:0.219797;stroke-linecap:round;stroke-linejoin:round;stroke-miterlimit:4;stroke-dasharray:none;stroke-dashoffset:0;stroke-opacity:1;paint-order:fill markers stroke"
         x="-146.72496"
         y="194.05011"
         id="text1010"><tspan
           sodipodi:role="line"
           id="tspan1008"
           x="-146.72496"
           y="194.05011"
           style="font-style:normal;font-variant:normal;font-weight:500;font-stretch:normal;font-family:'Inter UI';-inkscape-font-specification:'Inter UI Medium';text-align:start;text-anchor:start;fill:#ffffff;stroke:none;stroke-width:0.219797">https://libreoffice.id/</tspan></text>
    </g>
    <g
       id="g1050"
       transform="matrix(0.96494406,0,0,0.96494406,-54.580543,5.9522269)">
      <g
         id="g1033"
         style="fill:#ffffff"
         transform="translate(171.84621,-1.1505549)">
        <g
           aria-label="@libreofficeid"
           style="font-style:normal;font-variant:normal;font-weight:500;font-stretch:normal;font-size:4.96252728px;line-height:12.60559654px;font-family:'Inter UI';-inkscape-font-specification:'Inter UI Medium';font-variant-ligatures:normal;font-variant-position:normal;font-variant-caps:normal;font-variant-numeric:normal;font-variant-alternates:normal;font-feature-settings:normal;text-indent:0;text-align:start;text-decoration:none;text-decoration-line:none;text-decoration-style:solid;text-decoration-color:#000000;letter-spacing:normal;word-spacing:normal;text-transform:none;writing-mode:lr-tb;direction:ltr;text-orientation:mixed;dominant-baseline:auto;baseline-shift:baseline;text-anchor:start;white-space:normal;shape-padding:0;opacity:1;vector-effect:none;fill:#ffffff;fill-opacity:1;fill-rule:nonzero;stroke:none;stroke-width:0.219797;stroke-linecap:round;stroke-linejoin:round;stroke-miterlimit:4;stroke-dasharray:none;stroke-dashoffset:0;stroke-opacity:1;paint-order:fill markers stroke"
           id="text1031">
          <path
             d="m -144.22255,168.80253 c -1.41157,0 -2.2416,0.86175 -2.24336,2.25041 0.002,1.4292 0.81064,2.24512 2.26803,2.24512 0.40708,0 0.87761,-0.11102 1.09613,-0.21323 l -0.12336,-0.38594 c -0.14803,0.0529 -0.55511,0.18152 -0.94986,0.18152 -1.186,0 -1.82218,-0.6538 -1.82218,-1.82394 0,-1.1208 0.62913,-1.84509 1.75698,-1.84509 1.03092,0 1.64595,0.66261 1.64419,1.55784 0.002,0.76482 -0.0969,1.10846 -0.41766,1.10846 -0.18151,0 -0.28196,-0.14803 -0.28196,-0.33307 v -1.63538 h -0.43352 v 0.19738 h -0.0229 c -0.0529,-0.15508 -0.3595,-0.2943 -0.72781,-0.25024 -0.50929,0.0599 -0.94633,0.48109 -0.94633,1.17542 0,0.72429 0.37007,1.20892 0.96395,1.23182 0.4018,0.0176 0.66261,-0.16917 0.74544,-0.37712 h 0.0212 c 0.0423,0.28372 0.34892,0.40885 0.65027,0.39827 0.75249,-0.0141 0.89523,-0.75425 0.89523,-1.49792 0,-1.06088 -0.72605,-1.98431 -2.07242,-1.98431 z m -0.13041,1.4803 c 0.43176,0 0.62561,0.19033 0.62737,0.72605 0.002,0.54983 -0.17623,0.82298 -0.63442,0.82298 -0.45995,0 -0.61855,-0.39475 -0.62031,-0.82121 0.002,-0.40532 0.22909,-0.72782 0.62736,-0.72782 z"
             style="font-style:normal;font-variant:normal;font-weight:500;font-stretch:normal;font-family:'Inter UI';-inkscape-font-specification:'Inter UI Medium';text-align:start;text-anchor:start;fill:#ffffff;stroke:none;stroke-width:0.219797"
             id="path1098" />
          <path
             d="m -141.04607,168.70737 h -0.52692 v 3.60911 h 0.52692 z"
             style="font-style:normal;font-variant:normal;font-weight:500;font-stretch:normal;font-family:'Inter UI';-inkscape-font-specification:'Inter UI Medium';text-align:start;text-anchor:start;fill:#ffffff;stroke:none;stroke-width:0.219797"
             id="path1100" />
          <path
             d="m -140.34205,172.31648 h 0.52692 v -2.70683 h -0.52692 z m 0.2661,-3.11039 c 0.17975,0 0.33307,-0.13922 0.33307,-0.31368 0,-0.17446 -0.15332,-0.31545 -0.33307,-0.31545 -0.18151,0 -0.33307,0.14099 -0.33307,0.31545 0,0.17446 0.15156,0.31368 0.33307,0.31368 z"
             style="font-style:normal;font-variant:normal;font-weight:500;font-stretch:normal;font-family:'Inter UI';-inkscape-font-specification:'Inter UI Medium';text-align:start;text-anchor:start;fill:#ffffff;stroke:none;stroke-width:0.219797"
             id="path1102" />
          <path
             d="m -139.11111,172.31648 h 0.51458 v -0.42118 h 0.0441 c 0.0952,0.1727 0.28901,0.47405 0.78244,0.47405 0.65556,0 1.13137,-0.52515 1.13137,-1.401 0,-0.8776 -0.48286,-1.39395 -1.13666,-1.39395 -0.50224,0 -0.68375,0.30664 -0.77715,0.47405 h -0.0317 v -1.34108 h -0.52691 z m 0.51634,-1.35341 c 0,-0.56569 0.24672,-0.94105 0.70667,-0.94105 0.47757,0 0.71724,0.40356 0.71724,0.94105 0,0.54277 -0.24672,0.9569 -0.71724,0.9569 -0.4529,0 -0.70667,-0.38769 -0.70667,-0.9569 z"
             style="font-style:normal;font-variant:normal;font-weight:500;font-stretch:normal;font-family:'Inter UI';-inkscape-font-specification:'Inter UI Medium';text-align:start;text-anchor:start;fill:#ffffff;stroke:none;stroke-width:0.219797"
             id="path1104" />
          <path
             d="m -136.0483,172.31648 h 0.52691 v -1.653 c 0,-0.35245 0.27315,-0.60798 0.63794,-0.60798 0.10221,0 0.18152,0.0212 0.24496,0.0529 l 0.16917,-0.44057 c -0.0899,-0.0599 -0.20618,-0.0987 -0.35421,-0.0987 -0.32073,0 -0.5886,0.17975 -0.68728,0.47052 h -0.0282 v -0.42999 h -0.50929 z"
             style="font-style:normal;font-variant:normal;font-weight:500;font-stretch:normal;font-family:'Inter UI';-inkscape-font-specification:'Inter UI Medium';text-align:start;text-anchor:start;fill:#ffffff;stroke:none;stroke-width:0.219797"
             id="path1106" />
          <path
             d="m -133.00135,172.37111 c 0.59036,0 1.00801,-0.29077 1.12785,-0.73134 l -0.49872,-0.0899 c -0.0952,0.25553 -0.32426,0.38593 -0.62385,0.38593 -0.45113,0 -0.75424,-0.29253 -0.76834,-0.81416 h 1.92439 v -0.1868 c 0,-0.97806 -0.58507,-1.36047 -1.19834,-1.36047 -0.75425,0 -1.2512,0.5745 -1.2512,1.40629 0,0.8406 0.4899,1.39042 1.28821,1.39042 z m -0.7613,-1.64419 c 0.0212,-0.38417 0.29959,-0.71724 0.72781,-0.71724 0.40885,0 0.67671,0.30311 0.67848,0.71724 z"
             style="font-style:normal;font-variant:normal;font-weight:500;font-stretch:normal;font-family:'Inter UI';-inkscape-font-specification:'Inter UI Medium';text-align:start;text-anchor:start;fill:#ffffff;stroke:none;stroke-width:0.219797"
             id="path1108" />
          <path
             d="m -130.11036,172.37111 c 0.76306,0 1.26178,-0.55863 1.26178,-1.39571 0,-0.84236 -0.49872,-1.401 -1.26178,-1.401 -0.76306,0 -1.26178,0.55864 -1.26178,1.401 0,0.83708 0.49872,1.39571 1.26178,1.39571 z m 0.002,-0.44232 c -0.49872,0 -0.73134,-0.43528 -0.73134,-0.95515 0,-0.51811 0.23262,-0.95867 0.73134,-0.95867 0.49519,0 0.72781,0.44056 0.72781,0.95867 0,0.51987 -0.23262,0.95515 -0.72781,0.95515 z"
             style="font-style:normal;font-variant:normal;font-weight:500;font-stretch:normal;font-family:'Inter UI';-inkscape-font-specification:'Inter UI Medium';text-align:start;text-anchor:start;fill:#ffffff;stroke:none;stroke-width:0.219797"
             id="path1110" />
          <path
             d="m -126.96825,169.60965 h -0.58331 v -0.24319 c 0,-0.23967 0.0987,-0.37008 0.35598,-0.37008 0.10926,0 0.1868,0.0247 0.23614,0.0405 l 0.12336,-0.42646 c -0.074,-0.0282 -0.22733,-0.0723 -0.44057,-0.0723 -0.42823,0 -0.80359,0.25025 -0.80359,0.75778 v 0.31368 h -0.41765 v 0.42294 h 0.41765 v 2.28389 h 0.52868 v -2.28389 h 0.58331 z"
             style="font-style:normal;font-variant:normal;font-weight:500;font-stretch:normal;font-family:'Inter UI';-inkscape-font-specification:'Inter UI Medium';text-align:start;text-anchor:start;fill:#ffffff;stroke:none;stroke-width:0.219797"
             id="path1112" />
          <path
             d="M -125.12669,169.60965 H -125.71 v -0.24319 c 0,-0.23967 0.0987,-0.37008 0.35598,-0.37008 0.10926,0 0.1868,0.0247 0.23614,0.0405 l 0.12336,-0.42646 c -0.074,-0.0282 -0.22733,-0.0723 -0.44056,-0.0723 -0.42823,0 -0.8036,0.25025 -0.8036,0.75778 v 0.31368 h -0.41765 v 0.42294 h 0.41765 v 2.28389 h 0.52868 v -2.28389 h 0.58331 z"
             style="font-style:normal;font-variant:normal;font-weight:500;font-stretch:normal;font-family:'Inter UI';-inkscape-font-specification:'Inter UI Medium';text-align:start;text-anchor:start;fill:#ffffff;stroke:none;stroke-width:0.219797"
             id="path1114" />
          <path
             d="m -124.58215,172.31648 h 0.52692 v -2.70683 h -0.52692 z m 0.2661,-3.11039 c 0.17975,0 0.33307,-0.13922 0.33307,-0.31368 0,-0.17446 -0.15332,-0.31545 -0.33307,-0.31545 -0.18151,0 -0.33307,0.14099 -0.33307,0.31545 0,0.17446 0.15156,0.31368 0.33307,0.31368 z"
             style="font-style:normal;font-variant:normal;font-weight:500;font-stretch:normal;font-family:'Inter UI';-inkscape-font-specification:'Inter UI Medium';text-align:start;text-anchor:start;fill:#ffffff;stroke:none;stroke-width:0.219797"
             id="path1116" />
          <path
             d="m -122.21103,172.37111 c 0.6397,0 1.05383,-0.38417 1.11199,-0.91109 h -0.51282 c -0.067,0.29254 -0.2943,0.46524 -0.59564,0.46524 -0.44586,0 -0.7331,-0.37184 -0.7331,-0.96219 0,-0.57979 0.29253,-0.94458 0.7331,-0.94458 0.33483,0 0.53925,0.21148 0.59564,0.46524 h 0.51282 c -0.0564,-0.5463 -0.50225,-0.90933 -1.11727,-0.90933 -0.76306,0 -1.2565,0.5745 -1.2565,1.401 0,0.81593 0.47581,1.39571 1.26178,1.39571 z"
             style="font-style:normal;font-variant:normal;font-weight:500;font-stretch:normal;font-family:'Inter UI';-inkscape-font-specification:'Inter UI Medium';text-align:start;text-anchor:start;fill:#ffffff;stroke:none;stroke-width:0.219797"
             id="path1118" />
          <path
             d="m -119.36409,172.37111 c 0.59035,0 1.00801,-0.29077 1.12784,-0.73134 l -0.49872,-0.0899 c -0.0952,0.25553 -0.32425,0.38593 -0.62384,0.38593 -0.45114,0 -0.75425,-0.29253 -0.76834,-0.81416 h 1.92439 v -0.1868 c 0,-0.97806 -0.58508,-1.36047 -1.19834,-1.36047 -0.75425,0 -1.25121,0.5745 -1.25121,1.40629 0,0.8406 0.48991,1.39042 1.28822,1.39042 z m -0.7613,-1.64419 c 0.0211,-0.38417 0.29958,-0.71724 0.72781,-0.71724 0.40885,0 0.67671,0.30311 0.67847,0.71724 z"
             style="font-style:normal;font-variant:normal;font-weight:500;font-stretch:normal;font-family:'Inter UI';-inkscape-font-specification:'Inter UI Medium';text-align:start;text-anchor:start;fill:#ffffff;stroke:none;stroke-width:0.219797"
             id="path1120" />
          <path
             d="m -117.61329,172.31648 h 0.52692 v -2.70683 h -0.52692 z m 0.2661,-3.11039 c 0.17975,0 0.33307,-0.13922 0.33307,-0.31368 0,-0.17446 -0.15332,-0.31545 -0.33307,-0.31545 -0.18151,0 -0.33306,0.14099 -0.33306,0.31545 0,0.17446 0.15155,0.31368 0.33306,0.31368 z"
             style="font-style:normal;font-variant:normal;font-weight:500;font-stretch:normal;font-family:'Inter UI';-inkscape-font-specification:'Inter UI Medium';text-align:start;text-anchor:start;fill:#ffffff;stroke:none;stroke-width:0.219797"
             id="path1122" />
          <path
             d="m -114.02797,172.31648 v -3.60911 h -0.52691 v 1.34108 h -0.0317 c -0.0934,-0.16741 -0.27492,-0.47405 -0.77716,-0.47405 -0.6538,0 -1.13666,0.51635 -1.13666,1.39395 0,0.87585 0.47581,1.401 1.13137,1.401 0.49343,0 0.68728,-0.30135 0.78245,-0.47405 h 0.044 v 0.42118 z m -0.51634,-1.35341 c 0,0.56921 -0.25377,0.9569 -0.70667,0.9569 -0.47052,0 -0.71724,-0.41413 -0.71724,-0.9569 0,-0.53749 0.23967,-0.94105 0.71724,-0.94105 0.45995,0 0.70667,0.37536 0.70667,0.94105 z"
             style="font-style:normal;font-variant:normal;font-weight:500;font-stretch:normal;font-family:'Inter UI';-inkscape-font-specification:'Inter UI Medium';text-align:start;text-anchor:start;fill:#ffffff;stroke:none;stroke-width:0.219797"
             id="path1124" />
        </g>
      </g>
      <path
         style="fill:#ffffff;fill-opacity:1;stroke-width:0.01096177"
         inkscape:connector-curvature="0"
         d="m 19.824366,168.53275 c -0.697169,0 -1.259507,0.56234 -1.259507,1.25951 0,0.69716 0.562338,1.2595 1.259507,1.2595 0.697169,0 1.259508,-0.56234 1.259508,-1.2595 0,-0.69717 -0.562339,-1.25951 -1.259508,-1.25951 z m 0,2.07835 c -0.450529,0 -0.818844,-0.36722 -0.818844,-0.81884 0,-0.45163 0.367219,-0.81885 0.818844,-0.81885 0.451625,0 0.818845,0.36722 0.818845,0.81885 0,0.45162 -0.368316,0.81884 -0.818845,0.81884 z m 1.604804,-2.12987 c 0,0.16333 -0.131542,0.29377 -0.293776,0.29377 -0.16333,0 -0.293775,-0.13154 -0.293775,-0.29377 0,-0.16224 0.131541,-0.29378 0.293775,-0.29378 0.162234,0 0.293776,0.13154 0.293776,0.29378 z m 0.834191,0.29816 c -0.01864,-0.39353 -0.108522,-0.74211 -0.396817,-1.02931 -0.287198,-0.2872 -0.635782,-0.37709 -1.02931,-0.39682 -0.405586,-0.023 -1.621246,-0.023 -2.026832,0 -0.392431,0.0186 -0.741016,0.10852 -1.02931,0.39572 -0.288295,0.2872 -0.377085,0.63578 -0.396817,1.02931 -0.02302,0.40559 -0.02302,1.62125 0,2.02683 0.01864,0.39353 0.108522,0.74212 0.396817,1.02931 0.288294,0.2872 0.635782,0.37709 1.02931,0.39682 0.405586,0.023 1.621246,0.023 2.026832,0 0.393528,-0.0186 0.742112,-0.10852 1.02931,-0.39682 0.287199,-0.28719 0.377085,-0.63578 0.396817,-1.02931 0.02302,-0.40558 0.02302,-1.62015 0,-2.02573 z m -0.523973,2.46092 c -0.0855,0.21485 -0.251025,0.38037 -0.466972,0.46697 -0.323372,0.12825 -1.090696,0.0986 -1.44805,0.0986 -0.357354,0 -1.125774,0.0285 -1.44805,-0.0986 -0.214851,-0.0855 -0.380373,-0.25103 -0.466971,-0.46697 -0.128253,-0.32338 -0.09866,-1.0907 -0.09866,-1.44805 0,-0.35736 -0.0285,-1.12578 0.09866,-1.44805 0.0855,-0.21485 0.251024,-0.38038 0.466971,-0.46698 0.323372,-0.12825 1.090696,-0.0987 1.44805,-0.0987 0.357354,0 1.125774,-0.0285 1.44805,0.0987 0.214851,0.0855 0.380374,0.25103 0.466972,0.46698 0.128253,0.32337 0.09866,1.09069 0.09866,1.44805 0,0.35735 0.0296,1.12577 -0.09866,1.44805 z"
         id="path1035" />
    </g>
  </g>
</svg>
